<?xml version="1.0" encoding="utf-8"?>
<!-- Generator: Adobe Illustrator 25.0.1, SVG Export Plug-In . SVG Version: 6.00 Build 0)  -->
<svg version="1.1" id="Layer_1" xmlns="http://www.w3.org/2000/svg" xmlns:xlink="http://www.w3.org/1999/xlink" x="0px" y="0px"
	 viewBox="0 0 538.79 64.3" style="enable-background:new 0 0 538.79 64.3;" xml:space="preserve">
<style type="text/css">
	.st0{fill:#213441;}
</style>
<path d="M529.33,289.33c-67.48,0-134.96,0-202.45,0c-0.45,2.52-1.97,2.95-4.41,2.92c-15.01-0.15-30.02-0.1-45.03-0.06
	c-9.98,0.02-19.96,0.16-29.95,0.2c-2.6,0.01-5.22-0.29-7.81-0.16c-0.15,0.01-0.18,0.01-0.07,0c-2.28,0.12-18-0.1-24.73-0.1
	c-0.26-0.9-0.53-1.85-0.81-2.8c-69.02,0-138.05,0-207.05,0c-2.65,0-5.3,0-7.94,0c0,45.33,0,90.66,0,135.98h7.94l0,0
	c177.31,0,354.54,0,531.77,0c0-14.58,0-29.16,0-43.74V306.2c0-5.62,0-11.24,0-16.87C535.64,289.33,532.48,289.33,529.33,289.33z
	 M57.92,380.52c-2.04,0-3.99,0-6.39,0c2.34-1.27,4.26-2.31,6.39-3.46C57.92,378.34,57.92,379.34,57.92,380.52z M61.26,379.61
	c-0.16-0.3-0.32-0.61-0.48-0.91c1.32-1.11,2.47-2.78,3.99-3.24c4-1.2,4.93,1.89,5.59,4.86C67.26,380.08,64.26,379.84,61.26,379.61z
	 M88.05,381.47c-4.33-0.43-8.68-0.68-12.98-1.33c-2.83-0.43-2.95-1.34-1.13-3.66c0.96-1.22,1.61-2.68,2.62-3.85
	c0.45-0.52,1.78-1.07,2.09-0.82c3.38,2.67,6.63,5.5,9.91,8.29C88.4,380.56,88.23,381.02,88.05,381.47z M139.4,380.49
	c5.97-3.93,13.22-4.85,16.3,0C150.16,380.49,144.96,380.49,139.4,380.49z M179.56,381.41c-6.62-0.59-13.24-1.19-19.82-1.78
	c0.28-5.65,4.77-6.34,8.83-7.86c-0.52,1.17-1.03,2.35-1.62,3.7c4.43,1.66,8.66,3.25,12.88,4.83
	C179.73,380.68,179.64,381.05,179.56,381.41z M198.46,381.39c-0.17-0.21-0.34-0.42-0.51-0.63c1.3-1.33,2.46-2.87,3.95-3.93
	c1.48-1.05,2.29-0.09,2.5,1.54c0.11,0.88,0.42,1.74,0.65,2.65C203.06,381.13,200.76,381.26,198.46,381.39z M207,379.04
	c0.97-1.16,1.62-2.57,2.21-2.54c2.95,0.14,4.8,1.93,5.51,4.77C212.5,380.63,210.1,379.93,207,379.04z M283.54,379.72
	c1.67-5.03,1.69-5.29,7.01-5.02c4.24,0.22,8.66,0.68,11.44,4.72c0.23,0.33,0.38,0.72,0.9,1.75
	C296.08,380.66,289.79,380.19,283.54,379.72z M313.46,380.68c-2.4,0.72-4.99,0.8-7.6,1.17c-0.09-0.88-0.21-1.24-0.14-1.55
	c0.34-1.53,0.72-3.05,1.09-4.58c2.33,0.66,5.05-0.67,7.11,1.67C315.27,378.91,314.96,380.23,313.46,380.68z M316.29,381.85
	c0.82-2.34,0.82-2.34,4.5,0C319.28,381.85,317.78,381.85,316.29,381.85z M335.25,379.56c1.32-0.85,2.64-1.71,4.07-2.63
	C339.46,379.81,338.66,380.43,335.25,379.56z M346.34,378.62c-1,2.37-3.16,1.63-5.43,1.74c0.98-1.68,0.11-4.41,3.12-3.73
	C344.95,376.84,346.47,378.3,346.34,378.62z M358.93,380.28c-2.16,0.15-4.33,0.29-6.64,0.45c0.54-1.71,0.96-3.05,1.65-5.22
	c1.73,1.36,3.38,2.66,5.02,3.95C358.94,379.73,358.93,380.01,358.93,380.28z M443.69,381.79c3.38-1.76,4.21-4.21,2.09-7.32
	c2.77,0.13,5.17-0.07,7.4,0.47c1.09,0.26,1.86,1.88,2.78,2.88c-0.69,0.54-1.29,1.36-2.07,1.57
	C450.65,380.26,447.37,380.94,443.69,381.79z M535.12,381.48c-8.15-0.02-10.51-0.01-12.86,0.08v0.23H495.6
	c0,0-26.47-0.77-39.86-0.77c1.58-1.07,3.99-1.03,3.83-3.65c-0.01-0.19,0.83-0.46,1.3-0.63c1.07-0.37,2.19-0.61,3.22-1.05
	c4.6-1.93,6.63-1.45,9.77,2.39c0.55,0.68,1.19,1.28,1.79,1.92c0.23-0.22,0.47-0.44,0.7-0.66c-2.44-2.64-4.88-5.28-7.23-7.82
	c24.99-0.09,39.14-15.38,49.16-36.18c-0.22-0.23-0.44-0.47-0.67-0.7c-0.45,0.71-0.92,1.42-1.34,2.15c-0.48,0.84-0.89,1.71-1.37,2.55
	c-4.85,8.47-10.71,16.13-19,21.48c-3.72,2.4-7.79,4.44-11.97,5.88c-7.3,2.53-10.33,1.47-15.13-4.55c-2.64-3.32-5.98-5.41-9.99-6.39
	c-6.51-1.6-12.7-0.66-18.48,2.77c-0.98,0.58-1.92,1.25-2.95,1.72c-1.35,0.61-2.68,1.22-4.09-0.21c-0.33-0.34-1.76,0.15-2.52,0.56
	c-0.9,0.48-1.55,1.39-2.43,1.92c-3.03,1.86-6.15,3.57-9.11,5.52c-0.41,0.27-0.45,2.06-0.04,2.39c0.96,0.78,2.26,1.29,3.49,1.56
	c0.73,0.16,1.61-0.36,3.09-0.74c-0.99,0.79-1.41,1.12-1.92,1.52c0.33,0.14,0.54,0.3,0.63,0.25c2.93-1.68,6.25-0.6,9.33-1.31
	c0.75-0.17,1.71,0.55,2.57,0.86c-0.73,0.72-1.35,1.66-2.22,2.11c-1.8,0.94-3.74,1.61-5.38,2.87c2.9-0.51,6.01-0.53,8.66-1.65
	c3.66-1.55,5.76,0.24,8.24,2.48c-1.77,2.1-3.41,3.71-6.53,3.42c-6.54-0.59-13.12-0.8-19.68-1.18c-6.74-0.39-36.96-1.25-36.68,0.75
	c-2.32,0-4.62,0-6.82,0c0.31-1.03,0.86-2.64,0.79-2.67c-1.66-0.65-3.39-1.14-5.11-1.65c-0.08,0.22-0.15,0.45-0.23,0.67
	c1.07,0.44,2.14,0.89,3.21,1.33c-0.05,0.3-0.1,0.61-0.15,0.91c-2.97-0.3-6-0.3-8.88-0.98c-3.48-0.82-4.02-2.12-3.22-5.56
	c1.32-5.67-0.5-10.58-4.06-14.81c-2.39-2.83-5.75-3.88-9.29-2.27c-2.59,1.18-5.04,2.75-7.38,4.39c-1.7,1.19-3.11,2.78-4.65,4.19
	c-0.63-0.68-1.05-1.52-1.63-1.66c-0.74-0.17-1.78,0.03-2.38,0.48c-0.38,0.29-0.19,1.32-0.28,2.01c-0.16,1.28-0.21,2.58-0.53,3.82
	c-0.44,1.69-1.05,3.34-1.68,4.97c-0.72,1.86-1.53,3.69-2.56,6.14c-2.74-0.87-5.47-1.62-8.09-2.66c-0.51-0.2-0.95-1.68-0.75-2.37
	c2.27-8.08,0.19-15.41-3.54-22.53c-0.51-0.98-0.58-2.18-0.94-3.24c-1.52-4.45-3.07-8.89-4.66-13.47c0.24-0.12,1.15-0.27,1.36-0.74
	c0.38-0.84,0.64-1.99,0.34-2.79c-0.19-0.5-1.65-1.02-2.24-0.78c-2,0.82-3.71,0.65-5.81,0.03c-3.22-0.96-6.65-1.26-10.02-1.6
	c-1.58-0.16-2.38,3.49-0.93,5.15c1.69,1.94,3.85,3.48,5.55,5.42c0.76,0.86,1.38,2.35,1.21,3.42c-0.43,2.65-1.35,5.22-2.07,7.82
	c-0.68,2.49-1.56,4.94-1.95,7.48c-0.19,1.24,0.41,2.68,0.92,3.91c0.17,0.41,1.17,0.48,1.84,0.72c-0.12-1-0.21-1.76-0.32-2.7
	c0.44,0.23,0.72,0.37,0.71,0.37c0.09-1.65,0.19-3.38,0.29-5.12c0.32,0.01,0.64,0.02,0.96,0.03c1.14,3.02,2.04,5.9,0.79,9.39
	c-0.85,2.4-0.47,5.24-0.63,7.71c-3.05-1.8-4.85-4.86-5.3-8.88c-0.5-4.51-2.68-8.15-6.44-10.7c-6.52-4.42-13.53-7-21.57-5.19
	c-0.34,0.08-0.7,0.07-1.05,0.08c-0.52,0.01-1.05,0-1.53,0c-1.29-2.9-2.32-3.24-5.15-1.85c-0.43,0.21-0.99,0.21-1.5,0.23
	c-3.13,0.12-6.27,0.1-9.37,0.42c-0.98,0.1-2.6,1.09-2.62,1.72c-0.04,1.09,0.65,2.71,1.54,3.23c3.88,2.25,8.04,4.01,11.87,6.32
	c1.31,0.79,1.96,2.68,2.8,3.91c-2.91,1.22-5.24,2.19-7.57,3.17c0.08,0.19,0.15,0.38,0.23,0.57c2.58-0.48,5.16-0.97,7.8-1.46
	c1.53,3.89-2.32,7.77,0.85,11.28c-0.51-3.45,0.57-6.3,2.86-8.78c1.47-1.59,2.8-2.34,4.93-0.87c2.27,1.57,4.87,2.49,5.17,5.97
	c0.11,1.31,1.79,2.48,2.9,3.89c-0.58,0.25-1.16,0.5-1.74,0.77c-6.13,2.83-12.56,3.58-19.26,3.12c-4.33-0.29-27.94-0.95-29.34,0.82
	c-3.55-0.78-7.52-1.65-11.93-2.61c1.46-3.47,3.12-6.7,4.15-10.12c0.97-3.23,1.63-6.64,1.75-10c0.1-2.84,0.66-4.62,3.7-5.18
	c2.54-0.47,5.04-1.17,7.52-1.91c0.87-0.26,1.61-0.96,2.57-1.55c-0.94-1.78-2.42-1.62-4.06-1.01c-1.4,0.53-2.82,1-4.22,1.49
	c-0.14-0.23-0.28-0.46-0.42-0.69c0.61-0.84,1.21-1.68,2.18-3.03c-0.89,0.44-1.23,0.61-1.89,0.93c0.5-0.86,0.86-1.48,1.22-2.1
	c-1.68-1.57-1.76-1.51-5.15,4.16c0.1-3.92-0.98-7.16,0.57-10.49c1.24-2.66,2.11-5.5,2.95-8.31c0.27-0.91,0.04-2.01-0.14-3
	c-0.29-1.64-1.32-2-2.59-1.04c-2.44,1.82-4.84,3.71-7.17,5.68c-1.08,0.91-1.68,2.22-3.53,2.29c-0.49,0.02-1.69,3.32-1.17,3.93
	c1.28,1.51,0.59,2.46-0.19,3.39c-2.04,2.42-2.93,5.2-3.69,8.25c-0.58,2.32-2.12,4.74-3.91,6.36c-4.2,3.79-5.93,8.46-6.63,13.87
	c-0.44,3.42-1.57,6.75-2.4,10.2c-1.77-0.13-3.06-0.23-4.51-0.34c-0.04-0.66-0.09-1.31-0.14-2.08c-1.56,0-3.04,0.01-4.52,0
	c-1.32-0.02-2.77,0.26-3.91-0.2c-1.11-0.46-2.01-1.61-2.8-2.62c-0.48-0.61-0.57-1.53-0.78-2.15c1.07-1.91,2.14-3.97,3.37-5.92
	c0.38-0.6,1.21-0.89,1.8-1.37c1.26-1.02,1.25-2.07-0.11-2.95c-3.28-2.13-6.62-4.16-9.88-6.31c-3.78-2.5-7.78-3.45-12.25-2.3
	c-1.94,0.5-3.97,0.66-5.94,1.11c-5.08,1.14-8.96,3.92-11.19,8.69c-0.85,1.81-1.32,3.8-2.12,5.65c-0.91,2.12-1.46,5.15-3.1,6.04
	c-3.14,1.7-6.96,2.16-10.49,3.14c-0.11-0.33-21.41-0.95-21.72,0.33c-3.61,0.42-17.39,0.34-19.27-1.84c-0.52-0.6-1.01-1.27-1.66-1.69
	c-3.3-2.11-2.48-5.1-1.62-7.97c0.2-0.65,1.34-1.37,2.1-1.44c3.86-0.34,7.35-2.76,11.45-1.92c0.58,0.12,1.44-1.18,2.36-1.98
	c-3.82-2.56-6.15-6.78-11.12-6.86c-0.44-0.01-0.97-0.34-1.3-0.67c-2.17-2.19-2.66-2.15-4.37,0.5c-2.43-0.93-4.85-1.92-7.32-2.79
	c-7.76-2.73-15.19,0.26-18.75,7.67c-1.67,3.49-2.73,7.1-2.17,11.16c0.17,1.25-1.1,3.14-2.26,4.03c-2.86,2.21-6.27,3.22-9.91,2.27
	c-2.69-0.7-5.4-1.48-7.94-2.6c-3.07-1.35-5.44-3.48-5.1-7.65c-2.64,4.25-0.4,6.95,9.46,11.93c-3.82,2.08-7.89,1.2-11.8,1.31
	c-5.77,0.17-11.54-0.02-17.32-0.09c-0.72-0.01-1.44-0.29-2.16-0.44c-0.67,0.01-1.33,0.01-7.79,0.02v-73.82
	c7.97,0,10.14,0,12.31-0.01c3.51-0.02,7.01-0.13,10.52-0.11c0.61,0,1.23,0.44,1.84,0.68c1.73-2.14,4.06-0.54,6.07-0.9
	c0.17-0.03,0.5,0.85,0.76,1.37c1.29-2.19,2.97-1.87,4.78-0.73c1.6-0.26,3.2-0.51,4.8-0.77c1.9,0.15,3.8,0.44,5.7,0.42
	c5.4-0.06,10.8-0.26,16.2-0.37c2.52-0.05,5.06-0.09,7.57,0.04c5.5,0.28,10.99,0.91,16.49,0.95c3.64,0.03,7.27-0.77,10.92-1.11
	c0.79-0.07,1.62,0.21,2.43,0.33c0,0,0,0,0,0c0.33-0.17,0.65-0.44,0.98-0.61c0.2-0.1,0.39-0.18,0.59-0.18
	c6.36,0,12.73,0.05,19.09,0.16c0.37,0.01,0.72,0.6,1.09,0.93c2.12-1.91,4.54-0.66,6.81-0.55c5.94,0.3,11.88,0.76,17.81,1.18
	c0.78,0.05,1.54,0.25,2.31,0.39c0.86-0.16,1.72-0.32,2.63-0.48l1.31-0.71h7.26l0.35,0.03c0.16-0.01,0.32-0.02,0.48-0.03
	c0,0.03,0.01,0.05,0.01,0.08l8.56,0.78c0.56-0.14,1.17-0.2,1.83-0.22c13.82-0.33,27.65-0.74,41.81-1.13c0-2.83,0-6.2,0-9.77
	c6.84,0,23-0.16,28.81-0.16c26.93-0.03,53.87-0.01,80.8,0c0.51,0,1.02,0.05,1.77,0.09c0,3.43,0,6.72,0,9.68
	c6.01,0,11.76-0.07,17.5,0.02c1.24,0.02,2.47,0.06,3.71,0.11h29.47c4.39-0.67,8.73-1.76,13.1-2.62c1.15-0.22,2.58-0.32,3.57,0.17
	c5.34,2.65,10.88,2.15,16.48,1.47c11.78-1.42,23.53-1.5,35.39-0.55c8.5,0.68,17.05,0.82,25.59,0.98v-0.23h37.18v0.86
	c1.65,0.1,3.3,0.2,4.96,0.3c2.7-0.08,5.4-0.17,8.1-0.25c2.79-0.09,5.57-0.17,14.16-0.26V381.48z"/>
<path class="st0" d="M538.79,64.3c0-3.22,0-6.43,0-9.65l-2.14-0.09c-9.68-0.02-12.03-0.01-14.38,0.08v0.23H495.6
	c0,0-26.47-0.77-39.86-0.77c1.58-1.07,3.99-1.03,3.83-3.65c-0.01-0.19,0.83-0.46,1.3-0.63c1.07-0.37,2.19-0.61,3.22-1.05
	c4.6-1.93,6.63-1.45,9.77,2.39c0.55,0.68,1.19,1.28,1.79,1.92c0.23-0.22,0.47-0.44,0.7-0.66c-2.44-2.64-4.88-5.28-7.23-7.82
	c24.99-0.09,39.14-15.38,49.16-36.18c-0.22-0.23-0.44-0.47-0.67-0.7c-0.45,0.71-0.92,1.42-1.34,2.15c-0.48,0.84-0.89,1.71-1.37,2.55
	c-4.85,8.47-10.71,16.13-19,21.48c-3.72,2.4-7.79,4.44-11.97,5.88c-7.3,2.53-10.33,1.47-15.13-4.55c-2.64-3.32-5.98-5.41-9.99-6.39
	c-6.51-1.6-12.7-0.66-18.48,2.77c-0.98,0.58-1.92,1.25-2.95,1.72c-1.35,0.61-2.68,1.22-4.09-0.21c-0.33-0.34-1.76,0.15-2.52,0.56
	c-0.9,0.48-1.55,1.39-2.43,1.92c-3.03,1.86-6.15,3.57-9.11,5.52c-0.41,0.27-0.45,2.06-0.04,2.39c0.96,0.78,2.26,1.29,3.49,1.56
	c0.73,0.16,1.61-0.36,3.09-0.74c-0.99,0.79-1.41,1.12-1.92,1.52c0.33,0.14,0.54,0.3,0.63,0.25c2.93-1.68,6.25-0.6,9.33-1.31
	c0.75-0.17,1.71,0.55,2.57,0.86c-0.73,0.72-1.35,1.66-2.22,2.11c-1.8,0.94-3.74,1.61-5.38,2.87c2.9-0.51,6.01-0.53,8.66-1.65
	c3.66-1.55,5.76,0.24,8.24,2.48c-1.77,2.1-3.41,3.71-6.53,3.42c-6.54-0.59-13.12-0.8-19.68-1.18c-6.74-0.39-36.96-1.25-36.68,0.75
	c-2.32,0-4.62,0-6.82,0c0.31-1.03,0.86-2.64,0.79-2.67c-1.66-0.65-3.39-1.14-5.11-1.65c-0.08,0.22-0.15,0.45-0.23,0.67
	c1.07,0.44,2.14,0.89,3.21,1.33c-0.05,0.3-0.1,0.61-0.15,0.91c-2.97-0.3-6-0.3-8.88-0.98c-3.48-0.82-4.02-2.12-3.22-5.56
	c1.32-5.67-0.5-10.58-4.06-14.81c-2.39-2.83-5.75-3.88-9.29-2.27c-2.59,1.18-5.04,2.75-7.38,4.39c-1.7,1.19-3.11,2.78-4.65,4.19
	c-0.63-0.68-1.05-1.53-1.63-1.66c-0.74-0.17-1.78,0.03-2.38,0.48c-0.38,0.29-0.19,1.32-0.28,2.01c-0.16,1.28-0.21,2.58-0.53,3.82
	c-0.44,1.69-1.05,3.34-1.68,4.97c-0.72,1.86-1.53,3.69-2.56,6.14c-2.74-0.87-5.47-1.62-8.09-2.66c-0.51-0.2-0.95-1.67-0.75-2.37
	c2.27-8.08,0.19-15.41-3.54-22.53c-0.51-0.98-0.58-2.18-0.94-3.24c-1.52-4.45-3.07-8.89-4.66-13.47c0.24-0.12,1.15-0.27,1.36-0.74
	c0.38-0.84,0.64-1.99,0.34-2.79c-0.19-0.5-1.65-1.02-2.24-0.78c-2,0.82-3.71,0.65-5.81,0.03c-3.22-0.96-6.65-1.26-10.02-1.6
	c-1.58-0.16-2.38,3.49-0.93,5.15c1.69,1.94,3.85,3.48,5.55,5.42c0.76,0.86,1.38,2.35,1.21,3.42c-0.43,2.65-1.35,5.22-2.07,7.82
	c-0.68,2.49-1.56,4.94-1.95,7.48c-0.19,1.24,0.41,2.68,0.92,3.91c0.17,0.41,1.17,0.48,1.84,0.72c-0.12-1-0.21-1.76-0.32-2.7
	c0.44,0.23,0.72,0.37,0.71,0.37c0.09-1.65,0.19-3.38,0.29-5.12c0.32,0.01,0.64,0.02,0.96,0.03c1.14,3.02,2.04,5.9,0.79,9.39
	c-0.85,2.4-0.47,5.24-0.63,7.71c-3.05-1.8-4.85-4.86-5.3-8.88c-0.5-4.51-2.68-8.15-6.44-10.7c-6.52-4.42-13.53-7-21.57-5.19
	c-0.34,0.08-0.7,0.07-1.05,0.08c-0.52,0.01-1.05,0-1.53,0c-1.29-2.9-2.32-3.24-5.15-1.85c-0.43,0.21-0.99,0.21-1.5,0.23
	c-3.13,0.12-6.27,0.1-9.37,0.42c-0.98,0.1-2.6,1.09-2.62,1.72c-0.04,1.09,0.65,2.71,1.54,3.23c3.88,2.25,8.04,4.01,11.87,6.32
	c1.31,0.79,1.96,2.68,2.8,3.91c-2.91,1.22-5.24,2.19-7.57,3.17c0.08,0.19,0.15,0.38,0.23,0.57c2.58-0.48,5.16-0.97,7.8-1.46
	c1.53,3.89-2.32,7.77,0.85,11.28c-0.51-3.45,0.57-6.3,2.86-8.78c1.47-1.59,2.8-2.34,4.93-0.87c2.27,1.57,4.87,2.49,5.17,5.97
	c0.11,1.31,1.79,2.48,2.9,3.89c-0.58,0.25-1.16,0.5-1.74,0.77c-6.13,2.83-12.56,3.58-19.26,3.12c-4.33-0.29-27.94-0.95-29.34,0.82
	c-3.55-0.78-7.52-1.65-11.93-2.61c1.46-3.47,3.12-6.7,4.15-10.12c0.97-3.23,1.63-6.64,1.75-10c0.1-2.84,0.66-4.62,3.7-5.18
	c2.54-0.47,5.04-1.17,7.52-1.91c0.87-0.26,1.61-0.96,2.57-1.55c-0.94-1.78-2.42-1.62-4.06-1.01c-1.4,0.53-2.82,1-4.22,1.49
	c-0.14-0.23-0.28-0.46-0.42-0.69c0.61-0.84,1.21-1.68,2.18-3.03c-0.89,0.44-1.23,0.61-1.89,0.93c0.5-0.86,0.86-1.48,1.22-2.1
	c-1.68-1.57-1.76-1.51-5.15,4.16c0.1-3.92-0.98-7.16,0.57-10.49c1.24-2.66,2.11-5.5,2.95-8.31c0.27-0.91,0.04-2.01-0.14-3
	c-0.29-1.64-1.32-2-2.59-1.04c-2.44,1.82-4.84,3.71-7.17,5.68c-1.08,0.91-1.68,2.22-3.53,2.29c-0.49,0.02-1.69,3.32-1.17,3.93
	c1.28,1.51,0.59,2.46-0.19,3.39c-2.04,2.42-2.93,5.2-3.69,8.25c-0.58,2.32-2.12,4.74-3.91,6.36c-4.2,3.79-5.93,8.46-6.63,13.87
	c-0.44,3.42-1.57,6.75-2.4,10.2c-1.77-0.13-3.06-0.23-4.51-0.34c-0.04-0.66-0.09-1.31-0.14-2.08c-1.56,0-3.04,0.01-4.52,0
	c-1.32-0.02-2.77,0.26-3.91-0.2c-1.11-0.46-2.01-1.61-2.8-2.62c-0.48-0.61-0.57-1.53-0.78-2.15c1.07-1.91,2.14-3.97,3.37-5.92
	c0.38-0.6,1.21-0.89,1.8-1.37c1.26-1.02,1.25-2.07-0.11-2.95c-3.28-2.13-6.62-4.16-9.88-6.31c-3.78-2.5-7.78-3.45-12.25-2.3
	c-1.94,0.5-3.97,0.66-5.94,1.11c-5.08,1.14-8.96,3.92-11.19,8.69c-0.85,1.81-1.32,3.8-2.12,5.65c-0.91,2.12-1.46,5.15-3.1,6.04
	c-3.14,1.7-6.96,2.16-10.49,3.14c-0.11-0.33-21.41-0.95-21.72,0.33c-3.61,0.42-17.39,0.34-19.27-1.84c-0.52-0.6-1.01-1.27-1.66-1.69
	c-3.3-2.11-2.48-5.1-1.62-7.97c0.2-0.65,1.34-1.37,2.1-1.44c3.86-0.34,7.35-2.76,11.45-1.92c0.58,0.12,1.44-1.18,2.36-1.98
	c-3.82-2.56-6.15-6.78-11.12-6.86c-0.44-0.01-0.97-0.34-1.3-0.67c-2.17-2.19-2.66-2.15-4.37,0.5c-2.43-0.93-4.85-1.92-7.32-2.79
	c-7.76-2.73-15.19,0.26-18.75,7.67c-1.67,3.49-2.73,7.1-2.17,11.16c0.17,1.25-1.1,3.14-2.26,4.03c-2.86,2.21-6.27,3.22-9.91,2.27
	c-2.69-0.7-5.4-1.48-7.94-2.6c-3.07-1.35-5.44-3.48-5.1-7.65c-2.64,4.25-0.4,6.95,9.46,11.93c-3.82,2.08-7.89,1.2-11.8,1.31
	c-5.77,0.17-11.54-0.02-17.32-0.09c-0.72-0.01-1.44-0.29-2.16-0.44c-0.67,0.01-1.33,0.01-7.79,0.02c0,0-0.64,2.15-1.22,10.16H538.79
	z M445.78,47.55c2.77,0.13,5.17-0.07,7.4,0.47c1.09,0.26,1.86,1.88,2.78,2.88c-0.69,0.54-1.29,1.36-2.07,1.57
	c-3.23,0.87-6.51,1.55-10.2,2.4C447.07,53.11,447.89,50.66,445.78,47.55z M353.93,48.59c1.73,1.36,3.38,2.66,5.02,3.95
	c-0.01,0.27-0.01,0.55-0.02,0.82c-2.16,0.15-4.33,0.29-6.64,0.45C352.82,52.11,353.24,50.76,353.93,48.59z M344.04,49.71
	c0.92,0.21,2.43,1.67,2.3,1.99c-1,2.37-3.16,1.63-5.43,1.74C341.89,51.77,341.02,49.03,344.04,49.71z M339.31,50.01
	c0.15,2.87-0.65,3.5-4.07,2.63C336.57,51.79,337.89,50.93,339.31,50.01z M320.79,54.93c-1.5,0-3.01,0-4.5,0
	C317.11,52.58,317.11,52.58,320.79,54.93z M305.72,53.38c0.34-1.53,0.72-3.05,1.09-4.58c2.33,0.66,5.05-0.67,7.11,1.67
	c1.34,1.52,1.02,2.84-0.47,3.29c-2.4,0.72-4.99,0.8-7.6,1.17C305.77,54.05,305.65,53.69,305.72,53.38z M290.55,47.78
	c4.24,0.22,8.66,0.68,11.44,4.72c0.23,0.33,0.38,0.72,0.9,1.75c-6.8-0.51-13.1-0.99-19.35-1.46
	C285.21,47.77,285.23,47.51,290.55,47.78z M209.21,49.58c2.95,0.14,4.8,1.93,5.51,4.77c-2.22-0.64-4.62-1.33-7.72-2.23
	C207.97,50.96,208.62,49.55,209.21,49.58z M201.91,49.91c1.48-1.05,2.29-0.09,2.5,1.54c0.11,0.88,0.42,1.74,0.65,2.65
	c-1.99,0.11-4.29,0.24-6.59,0.37c-0.17-0.21-0.34-0.42-0.51-0.63C199.26,52.51,200.41,50.97,201.91,49.91z M168.56,44.86
	c-0.52,1.17-1.03,2.35-1.62,3.7c4.43,1.66,8.66,3.25,12.88,4.83c-0.09,0.37-0.17,0.74-0.26,1.1c-6.62-0.59-13.24-1.19-19.82-1.78
	C160.01,47.07,164.5,46.38,168.56,44.86z M155.69,53.57c-5.54,0-10.73,0-16.3,0C145.37,49.65,152.62,48.72,155.69,53.57z
	 M73.95,49.56c0.96-1.22,1.61-2.68,2.62-3.85c0.45-0.52,1.78-1.07,2.09-0.82c3.38,2.67,6.63,5.5,9.91,8.29
	c-0.17,0.45-0.35,0.91-0.52,1.36c-4.33-0.43-8.68-0.68-12.98-1.33C72.25,52.79,72.13,51.88,73.95,49.56z M64.77,48.54
	c4-1.2,4.93,1.89,5.59,4.86c-3.1-0.24-6.1-0.48-9.1-0.71c-0.16-0.3-0.32-0.61-0.48-0.91C62.1,50.66,63.25,48.99,64.77,48.54z
	 M57.92,50.14c0,1.29,0,2.29,0,3.46c-2.04,0-3.99,0-6.39,0C53.87,52.33,55.79,51.29,57.92,50.14z"/>
</svg>
