<?xml version="1.0" encoding="utf-8"?>
<!-- Generator: Adobe Illustrator 25.0.1, SVG Export Plug-In . SVG Version: 6.00 Build 0)  -->
<svg version="1.1" id="Layer_1" xmlns="http://www.w3.org/2000/svg" xmlns:xlink="http://www.w3.org/1999/xlink" x="0px" y="0px"
	 viewBox="0 0 87 95" style="enable-background:new 0 0 87 95;" xml:space="preserve">
<style type="text/css">
	.st0{fill:#213441;}
</style>
<g>
	<path class="st0" d="M16.26,69.53c0.02,0.04,0.04,0.09,0.06,0.13c-0.31,0.26-0.61,0.52-0.92,0.78c-1.88,1.58-3.57,3.32-4.57,5.62
		c-1.25,2.87-0.37,5.55,2.34,7.11c1.88,1.09,3.95,1.56,6.09,1.75c4.38,0.39,8.68-0.17,12.92-1.17c4.7-1.11,9.42-1.94,14.29-1.8
		c6.74,0.2,12.91,2.03,18.35,6.12c0.17,0.13,0.35,0.23,0.53,0.34c0.04-0.04,0.08-0.08,0.13-0.12c-0.2-0.35-0.36-0.71-0.59-1.03
		c-0.97-1.33-2.24-2.34-3.64-3.17c-6.17-3.71-12.96-4.93-20.02-4.48c-4.45,0.28-8.86,1.09-13.28,1.69
		c-2.81,0.39-5.61,0.68-8.45,0.45c-1.41-0.11-2.59-0.66-3.54-1.73c-1.15-1.3-1.26-2.68-0.21-4.07c0.75-0.99,1.75-1.67,2.83-2.22
		c4.2-2.12,8.65-3.12,13.36-2.88c0.42,0.02,0.65,0.18,0.73,0.57c0.14,0.61,0.56,0.85,1.14,0.79c0.63-0.06,1.26-0.13,1.88-0.27
		c0.53-0.12,0.91,0.02,1.12,0.49c0.42,0.94,1.19,1.22,2.13,1.26c1.74,0.08,3.48,0.16,5.22,0.27c1.25,0.07,2.46,0.31,3.65,0.76
		c0.74,0.28,1.58,0.3,2.39,0.39c0.36,0.04,0.74-0.07,1.1-0.03c0.17,0.02,0.38,0.19,0.46,0.35c0.21,0.43,1.49,0.68,1.67,0.24
		c0.22-0.53,0.55-0.43,0.88-0.33c0.96,0.29,1.8-0.27,2.71-0.31c0.06,0,0.11-0.1,0.22-0.21c-0.78-0.81-0.99-1.96-2.07-2.61
		c-0.58-0.35-1.09-0.65-1.76-0.67c-1.56-0.03-3.12-0.04-4.67-0.1c-1.27-0.05-2.54-0.09-3.8-0.25c-0.77-0.09-1.51-0.39-2.41-0.64
		c1.29-1.04,2.57-1.34,3.96-1.09c0.68,0.12,1.33,0.39,1.99,0.61c1.33,0.44,2.64,0.62,4.04,0.28c0.54-0.13,1.17,0.13,1.76,0.25
		c0.28,0.05,0.53,0.25,0.8,0.27c0.72,0.04,1.43,0.04,2.15,0.01c0.56-0.02,0.91-0.53,0.76-1.05c-0.11-0.37-0.2-0.76-0.37-1.1
		c-0.09-0.19-0.31-0.4-0.51-0.43c-2.38-0.39-4.77-0.74-7.16-1.12c-0.81-0.13-1.61-0.28-2.41-0.46c-0.45-0.1-0.54-0.34-0.34-0.81
		c0.48-1.15,1.1-2.3,1.27-3.51c0.24-1.68,0.85-3.14,1.73-4.54c0.13-0.21,0.23-0.44,0.34-0.65c0.4-0.77,0.63-1.53-0.1-2.25
		c-0.05-0.05-0.04-0.14-0.09-0.3c0.35,0.17,0.63,0.3,0.97,0.47c0.11-0.36,0.22-0.67,0.29-0.98c0.26-1.16,0.49-2.32,0.75-3.48
		c0.52-2.32,1.29-4.53,2.71-6.47c0.14-0.2,0.37-0.38,0.59-0.46c0.93-0.35,1.91-0.59,2.8-1.02c1.19-0.57,2.4-0.91,3.73-0.87
		c0.86,0.03,0.92,0.07,0.98,0.95c0.06,0.92,1.01,1.86,2.03,1.94c-0.12-0.21-0.22-0.38-0.32-0.54c-0.33-0.51-0.28-0.78,0.24-1.11
		c0.65-0.41,1.87,0,2.11,0.72c0.36,1.07,0.18,2.02-0.64,2.82c-0.4,0.4-0.78,0.8-1.17,1.21c0.04,0.05,0.08,0.09,0.11,0.14
		c1.15-0.26,1.82-1.38,2.89-1.79c0.05,0.04,0.09,0.07,0.14,0.11c-0.29,0.55-0.58,1.1-0.86,1.65c0.05,0.04,0.11,0.07,0.16,0.11
		c0.88-0.35,0.96-1.46,1.75-2.02c0.12,0.67,0.24,1.26,0.35,1.85c0.05,0.01,0.11,0.02,0.16,0.04c0.11-0.29,0.3-0.58,0.3-0.87
		c0-0.48-0.03-1-0.22-1.44c-0.79-1.85-1.97-3.39-3.77-4.39c-0.28-0.15-0.55-0.32-1-0.57c1.5-0.33,2.8-0.64,4.12-0.89
		c0.79-0.15,1.52,0.06,2.22,0.51c0.4,0.26,0.89,0.42,1.35,0.51c0.66,0.13,1.07,0.43,1.23,1.1c0.07,0.32,0.08,0.65,0.14,0.97
		c0.04,0.23,0.12,0.44,0.18,0.67c0.07,0.01,0.14,0.02,0.2,0.03c0.1-0.22,0.25-0.42,0.29-0.65c0.09-0.5,0.12-1.02,0.17-1.53
		c0.04-0.38,0.26-0.5,0.53-0.28c0.35,0.29,0.67,0.65,0.9,1.03c0.26,0.42,0.4,0.91,0.65,1.51c0.63-1.04-0.01-1.93,0.03-2.85
		c0.47,0.2,0.89,0.37,1.31,0.55c0.04-0.05,0.08-0.1,0.12-0.15c-0.18-0.23-0.35-0.47-0.55-0.68c-1.38-1.36-3.09-2.1-4.94-2.61
		c-2.98-0.82-5.95-1.67-8.9-2.6c-1.12-0.35-2.16-0.93-3.12-1.36c0.65-1.67,1.25-3.19,1.82-4.72c0.64-1.7,1.34-3.36,3.02-4.34
		c0.12-0.07,0.22-0.19,0.31-0.3c1.4-1.78,3.24-2.98,5.21-4.04c0.49-0.26,0.94-0.32,1.47-0.2c0.95,0.23,1.81-0.32,2-1.29
		c0.04-0.18-0.13-0.43-0.26-0.59c-0.1-0.12-0.3-0.14-0.51-0.23c0.14-0.11,0.22-0.2,0.3-0.22c0.64-0.14,0.87-0.53,0.76-1.17
		c-0.02-0.13-0.01-0.35,0.07-0.4c0.63-0.4,0.94-1.31,2.01-1.2c-0.33-0.1-0.52-0.16-0.78-0.23c0.13-0.26,0.24-0.47,0.31-0.61
		c-0.1-0.16-0.2-0.28-0.25-0.42c-0.16-0.46,0.12-0.76,0.4-1.08c0.38-0.43,0.57-1.01,0.26-1.47c-0.18-0.28-0.72-0.39-1.11-0.45
		c-0.56-0.1-1.14-0.07-1.71-0.13c-0.18-0.02-0.35-0.16-0.52-0.24c-0.22,0.07-0.48,0.23-0.74,0.24c-0.71,0.04-1.41,0.01-2.12,0.02
		c-4.11,0.03-8.19,0.38-12.2,1.29c-0.82,0.19-1.6,0.26-2.41,0c-0.38-0.12-0.8-0.16-1.21-0.18c-0.58-0.02-1.1,0.14-1.32,0.79
		c-0.2-0.05-0.37-0.1-0.55-0.14c-1.47-0.3-2.94-0.35-4.38,0.11c-1.68,0.53-2.13,1.71-1.27,3.24c0.23,0.4,0.48,0.79,0.75,1.22
		c-0.32,0.2-0.6,0.36-0.87,0.54c-0.11,0.08-0.29,0.23-0.27,0.29c0.23,0.62-0.22,1.01-0.49,1.43c-1.22,1.86-2.7,3.5-4.33,5.01
		c-0.21,0.2-0.52,0.33-0.8,0.4c-1.63,0.39-3.2,0.93-4.6,1.85c-0.89,0.59-1.76,1.3-2.44,2.11c-0.58,0.69-1.2,1.14-2.06,1.32
		c-0.53,0.11-1.07,0.22-1.77,0.36c0.88,0.39,0.54,0.78,0.17,1.1c-1,0.85-2.01,1.69-3.04,2.5c-6.36,4.99-9.94,11.49-10.59,19.55
		c-0.31,3.92,0.11,7.82,0.7,11.7c0.03,0.2-0.01,0.43-0.07,0.63c-0.13,0.48-0.38,0.94-0.42,1.42c-0.05,0.58-0.27,0.99-0.75,1.25
		c-0.39,0.21-0.83,0.35-1.24,0.53c-0.14,0.06-0.28,0.14-0.42,0.22c0.02,0.04,0.03,0.08,0.05,0.11C15.74,69.53,16,69.53,16.26,69.53z
		"/>
	<path class="st0" d="M16.26,69.53c-0.26,0-0.52,0-0.78,0c-0.02-0.04-0.03-0.08-0.05-0.11c0.14-0.07,0.27-0.15,0.42-0.22
		c0.41-0.18,0.85-0.32,1.24-0.53c0.48-0.26,0.71-0.67,0.75-1.25c0.04-0.48,0.29-0.94,0.42-1.42c0.06-0.2,0.1-0.43,0.07-0.63
		c-0.59-3.88-1.02-7.77-0.7-11.7c0.64-8.06,4.23-14.56,10.59-19.55c1.03-0.81,2.04-1.65,3.04-2.5c0.37-0.32,0.72-0.71-0.17-1.1
		c0.7-0.14,1.24-0.25,1.77-0.36c0.85-0.18,1.48-0.63,2.06-1.32c0.68-0.82,1.54-1.52,2.44-2.11c1.39-0.92,2.97-1.46,4.6-1.85
		c0.29-0.07,0.59-0.2,0.8-0.4c1.63-1.51,3.11-3.15,4.33-5.01c0.27-0.42,0.72-0.81,0.49-1.43c-0.02-0.06,0.16-0.21,0.27-0.29
		c0.27-0.18,0.55-0.34,0.87-0.54c-0.27-0.43-0.53-0.82-0.75-1.22c-0.86-1.54-0.41-2.71,1.27-3.24c1.44-0.46,2.91-0.4,4.38-0.11
		c0.18,0.04,0.35,0.09,0.55,0.14c0.22-0.66,0.74-0.81,1.32-0.79c0.41,0.01,0.83,0.05,1.21,0.18c0.81,0.26,1.59,0.19,2.41,0
		c4.01-0.91,8.09-1.26,12.2-1.29c0.71,0,1.42,0.02,2.12-0.02c0.27-0.01,0.52-0.17,0.74-0.24c0.18,0.09,0.34,0.22,0.52,0.24
		c0.57,0.06,1.15,0.03,1.71,0.13c0.4,0.07,0.93,0.18,1.11,0.45c0.31,0.47,0.11,1.04-0.26,1.47c-0.27,0.32-0.55,0.62-0.4,1.08
		c0.05,0.14,0.15,0.26,0.25,0.42c-0.07,0.14-0.17,0.34-0.31,0.61c0.26,0.08,0.45,0.14,0.78,0.23c-1.08-0.11-1.38,0.8-2.01,1.2
		c-0.08,0.05-0.1,0.27-0.07,0.4c0.12,0.64-0.12,1.02-0.76,1.17c-0.09,0.02-0.16,0.11-0.3,0.22c0.21,0.09,0.41,0.12,0.51,0.23
		c0.13,0.16,0.3,0.41,0.26,0.59c-0.2,0.98-1.05,1.52-2,1.29c-0.53-0.12-0.98-0.06-1.47,0.2c-1.97,1.06-3.81,2.26-5.21,4.04
		c-0.09,0.11-0.19,0.23-0.31,0.3c-1.69,0.98-2.38,2.64-3.02,4.34c-0.58,1.53-1.18,3.05-1.82,4.72c0.96,0.43,2.01,1.01,3.12,1.36
		c2.95,0.92,5.92,1.78,8.9,2.6c1.85,0.51,3.55,1.25,4.94,2.61c0.21,0.2,0.37,0.45,0.55,0.68c-0.04,0.05-0.08,0.1-0.12,0.15
		c-0.42-0.18-0.84-0.35-1.31-0.55c-0.03,0.92,0.6,1.81-0.03,2.85c-0.25-0.59-0.39-1.08-0.65-1.51c-0.23-0.39-0.56-0.74-0.9-1.03
		c-0.27-0.23-0.49-0.1-0.53,0.28c-0.05,0.51-0.08,1.02-0.17,1.53c-0.04,0.23-0.19,0.43-0.29,0.65c-0.07-0.01-0.14-0.02-0.2-0.03
		c-0.06-0.22-0.14-0.44-0.18-0.67c-0.06-0.32-0.07-0.65-0.14-0.97c-0.16-0.67-0.57-0.97-1.23-1.1c-0.47-0.09-0.96-0.25-1.35-0.51
		c-0.69-0.45-1.43-0.65-2.22-0.51c-1.32,0.25-2.62,0.56-4.12,0.89c0.45,0.26,0.72,0.42,1,0.57c1.8,0.99,2.98,2.53,3.77,4.39
		c0.18,0.43,0.22,0.96,0.22,1.44c0,0.29-0.19,0.58-0.3,0.87c-0.05-0.01-0.11-0.02-0.16-0.04c-0.11-0.59-0.22-1.18-0.35-1.85
		c-0.79,0.56-0.87,1.67-1.75,2.02c-0.05-0.04-0.11-0.07-0.16-0.11c0.29-0.55,0.58-1.1,0.86-1.65c-0.05-0.04-0.09-0.07-0.14-0.11
		c-1.07,0.41-1.74,1.53-2.89,1.79c-0.04-0.05-0.08-0.09-0.11-0.14c0.39-0.4,0.78-0.81,1.17-1.21c0.81-0.81,1-1.76,0.64-2.82
		c-0.24-0.72-1.46-1.13-2.11-0.72c-0.52,0.32-0.57,0.59-0.24,1.11c0.11,0.16,0.2,0.33,0.32,0.54c-1.02-0.08-1.96-1.02-2.03-1.94
		c-0.06-0.88-0.12-0.92-0.98-0.95c-1.32-0.04-2.53,0.3-3.73,0.87c-0.89,0.43-1.87,0.66-2.8,1.02c-0.23,0.09-0.45,0.27-0.59,0.46
		c-1.42,1.94-2.19,4.16-2.71,6.47c-0.26,1.16-0.49,2.32-0.75,3.48c-0.07,0.31-0.18,0.62-0.29,0.98c-0.35-0.17-0.62-0.3-0.97-0.47
		c0.04,0.16,0.04,0.26,0.09,0.3c0.74,0.72,0.5,1.48,0.1,2.25c-0.11,0.22-0.21,0.45-0.34,0.65c-0.88,1.4-1.48,2.86-1.73,4.54
		c-0.17,1.21-0.79,2.36-1.27,3.51c-0.2,0.47-0.1,0.71,0.34,0.81c0.8,0.18,1.6,0.33,2.41,0.46c2.39,0.38,4.78,0.73,7.16,1.12
		c0.19,0.03,0.41,0.25,0.51,0.43c0.17,0.35,0.27,0.73,0.37,1.1c0.15,0.52-0.19,1.03-0.76,1.05c-0.72,0.03-1.44,0.03-2.15-0.01
		c-0.27-0.01-0.53-0.21-0.8-0.27c-0.58-0.11-1.22-0.37-1.76-0.25c-1.4,0.34-2.72,0.16-4.04-0.28c-0.66-0.22-1.32-0.48-1.99-0.61
		c-1.39-0.25-2.67,0.04-3.96,1.09c0.9,0.25,1.64,0.55,2.41,0.64c1.26,0.15,2.53,0.2,3.8,0.25c1.56,0.06,3.11,0.07,4.67,0.1
		c0.67,0.01,1.17,0.31,1.76,0.67c1.08,0.65,1.29,1.8,2.07,2.61c-0.11,0.11-0.16,0.2-0.22,0.21c-0.91,0.05-1.76,0.6-2.71,0.31
		c-0.33-0.1-0.66-0.21-0.88,0.33c-0.18,0.43-1.46,0.19-1.67-0.24c-0.08-0.16-0.29-0.34-0.46-0.35c-0.36-0.04-0.74,0.08-1.1,0.03
		c-0.8-0.09-1.65-0.12-2.39-0.39c-1.19-0.45-2.4-0.69-3.65-0.76c-1.74-0.1-3.48-0.18-5.22-0.27c-0.94-0.04-1.72-0.32-2.13-1.26
		c-0.21-0.47-0.59-0.61-1.12-0.49c-0.62,0.14-1.25,0.21-1.88,0.27c-0.58,0.05-1-0.19-1.14-0.79c-0.09-0.4-0.31-0.55-0.73-0.57
		c-4.71-0.24-9.16,0.76-13.36,2.88c-1.08,0.55-2.09,1.23-2.83,2.22c-1.05,1.38-0.94,2.77,0.21,4.07c0.96,1.08,2.13,1.62,3.54,1.73
		c2.84,0.23,5.65-0.06,8.45-0.45c4.42-0.61,8.84-1.41,13.28-1.69c7.06-0.45,13.85,0.77,20.02,4.48c1.39,0.84,2.67,1.84,3.64,3.17
		c0.23,0.32,0.4,0.69,0.59,1.03c-0.04,0.04-0.08,0.08-0.13,0.12c-0.18-0.11-0.36-0.22-0.53-0.34c-5.43-4.08-11.61-5.92-18.35-6.12
		c-4.86-0.14-9.59,0.69-14.29,1.8c-4.25,1.01-8.55,1.56-12.92,1.17c-2.14-0.19-4.21-0.66-6.09-1.75c-2.71-1.56-3.59-4.24-2.34-7.11
		c1-2.3,2.69-4.04,4.57-5.62c0.31-0.26,0.61-0.52,0.92-0.78C16.3,69.62,16.28,69.57,16.26,69.53z"/>
</g>
</svg>
