<?xml version="1.0" encoding="utf-8"?>
<!-- Generator: Adobe Illustrator 25.0.1, SVG Export Plug-In . SVG Version: 6.00 Build 0)  -->
<svg version="1.1" id="Layer_1" xmlns="http://www.w3.org/2000/svg" xmlns:xlink="http://www.w3.org/1999/xlink" x="0px" y="0px"
	 viewBox="0 0 158.76 143.33" style="enable-background:new 0 0 158.76 143.33;" xml:space="preserve">
<style type="text/css">
	.st0{fill:#D0809D;}
	.st1{fill:none;stroke:#A33A69;stroke-miterlimit:10;}
	.st2{fill:#AF6884;stroke:#AB4A72;stroke-miterlimit:10;}
	.st3{fill:#B6748F;stroke:#AB4A72;stroke-miterlimit:10;}
	.st4{fill:none;stroke:#7F2E4E;stroke-miterlimit:10;}
</style>
<g>
	<path class="st0" d="M64.96,86.64c-4.01-2.74-10.05-3.62-14.78-4.26c-0.52-0.59-1.07-1.18-1.67-1.77
		c-5.54-5.41-10.52-10.48-18.45-11.97c-1.69-0.32-4.06,5.39-4.78,7.52c-3.36,1.49-6.66,6.19-6.62,9.76
		c-0.64,0.84-1.31,1.88-1.86,2.9c-1.21,0.57-1.97,1.56-2.84,2.85c-0.75,1.11-1.63,2.41-2.05,3.7c-0.18,0.38-0.33,0.78-0.44,1.19
		c-0.26,1.02,0.08,0.78,1.01-0.71c-0.06,0.6-1.7,2.64-2.02,3.2c-0.18,0.32-0.35,0.63-0.52,0.95c-0.43-0.1-0.87-0.05-1.32,0.22
		c-2.06,1.25-4,5.47-4.41,7.71c-0.13,0.27-0.13,0.53,0.02,0.78c0.46,0.28,0.95,0.24,1.44-0.02c0.06,0.06,0.12,0.12,0.19,0.19
		c-0.07,0.35-0.08,0.64,0.02,0.82c1.27,2.37,2.34,4.6,4.57,6.21c0.06,0.05,0.16,0.02,0.28-0.03c0.23,0.48,0.45,0.97,0.66,1.48
		c0.03,0.08,0.27-0.2,0.63-0.68c1.07-0.29,3.51,0.84,4.46,0.97c1.06,0.15,2.18,0.09,3.22-0.03c2.1-0.24,4.02-0.95,5.85-1.89
		c-0.01,0.06-0.03,0.12-0.04,0.19c-0.52,3.76,3.81,6.87,6.44,8.83c3.09,2.31,7.44,5.6,11.19,6.57c1.47,0.38,1.82-0.04,3.15-0.39
		c2.32-0.61,1.58-0.54,3.55,0.32c1.17,0.5,2.28,0.71,3.54,0.89c0.15,0.02,0.31-0.02,0.46-0.09c-0.1,0.41-0.21,0.83-0.31,1.24
		c-0.44,1.75,1.22-0.17,1.55-0.52c1.37-1.45,2.52-3.64,3.22-5.49c0.12-0.31,0.23-0.62,0.35-0.93c0.35-0.66,0.63-1.32,0.74-2.01
		c1.51-4.15,2.82-8.32,3.52-12.72c0.87-5.43,1.87-10.29,3.74-15.47C67.91,92.71,68.37,88.97,64.96,86.64z"/>
	<path class="st1" d="M74.06,79.54c-1.97,3.86-3.8,7.79-5.51,11.77c-0.06-1.27-0.31-2.53-0.86-3.7c-1.39-2.99-4.33-3.91-7.4-4.16
		c-1.88-0.15-3.76-0.23-5.65-0.35c-1.67-0.1-3.43-0.18-4.92-1.02c-1.39-0.79-2.29-2.14-3.18-3.43c-0.94-1.35-1.96-2.62-3.14-3.76
		c-1.32-1.29-2.8-2.41-4.39-3.35c-1.52-0.9-5.86-5.85-10.04-2.88c-1.13,0.8-1.93,2-2.54,3.23c-0.52,1.03-0.84,2.13-0.94,3.28
		c-0.12,0.09-0.23,0.2-0.35,0.3c-0.77,0.4-1.41,1.05-1.91,1.81c-1.6,1.73-2.91,3.74-3.89,5.9c-0.5,1.1-4.31,6.71-5.13,7.49
		c-1.01,0.96-1.79,2.29-2.09,3.65c-0.25,1.14-0.2,2.29-0.68,3.38c-0.55,1.26-1.65,2.19-2.61,3.15c-1.24,1.23-2.37,2.54-3.2,4.09
		c-0.87,1.63-1.26,3.27-0.71,5.08c0.56,1.84,1.39,3.82,2.68,5.27c0.92,1.03,3.25,2.71,4.73,1.86c0.27-0.15,0.46-0.37,0.62-0.6
		c0.45,0.93,1.59,1.28,2.54,1.51c1.31,0.32,2.68,0.37,4.02,0.42c1.36,0.05,2.41-0.22,3.57-0.94c0.85-0.53,1.56-1.14,2.16-1.91
		c-0.76,2.4-0.24,4.82,1.76,6.56c1.03,0.9,2.24,1.54,3.35,2.32c1.45,1,2.7,2.24,3.96,3.46c2.24,2.15,4.96,4.5,8.28,4.4
		c0.85-0.03,1.64-0.34,2.49-0.39c0.66-0.04,1.25,0.11,1.86,0.34c0.17,0.06,0.34,0.12,0.51,0.18c0.77,0.46,3.46,0.79,3.77,0.79
		c2.25,0.03,4.42-0.72,5.83-2.53c1.82-2.34,2-5.01,2.56-7.81c0.67-3.35,2.33-6.4,3.1-9.72c0.82-3.54,1.05-7.18,2.05-10.68
		c0.73-2.57,4.2-11.17,4.4-11.63c1.68-3.93,3.5-7.81,5.44-11.62C75.2,78.06,74.36,78.95,74.06,79.54z M66.04,97.38
		c-1.13,2.9-2.22,5.84-2.86,8.89c-0.68,3.19-0.89,6.47-1.79,9.62c-0.85,2.96-2.27,5.74-2.83,8.79c-0.3,1.64-0.26,3.98-1.47,5.26
		c-0.83,0.88-2.14,1.35-3.3,1.54c-1.18,0.2-2.41,0.13-3.58-0.12c-0.64-0.14-1.26-0.4-1.88-0.63c-1.21-0.74-2.22-1.74-2.58-3.18
		c-0.05-0.21-0.48,0.44-0.51,0.48c-0.13,0.21-0.26,0.43-0.36,0.66c-0.05,0.11-0.17,0.31-0.14,0.43c0.11,0.45,0.3,0.85,0.52,1.22
		c-1.01,0.14-1.99,0.41-3.07,0.22c-1.47-0.26-2.82-0.96-4.03-1.81c-2.73-1.93-4.78-4.62-7.6-6.44c-1.23-0.79-2.53-1.56-3.47-2.71
		c-1.19-1.47-1.61-3.6-0.86-5.37c0.24-0.56,0.08-0.46-0.14-0.18c-0.12-0.1-0.46,0.44-0.49,0.5c-0.52,0.79-1.63,1.39-2.46,1.8
		c-1.13,0.56-2.31,0.48-3.53,0.42c-1.09-0.05-2.18-0.14-3.24-0.41c-0.88-0.22-2.91-2.45-2.97-3.01c-0.14-1.35-0.43-2.67-0.65-4.01
		c-0.09-0.56-0.16-1.14-0.11-1.72c0.1-1.08,0.83-1.85,1.56-2.58c1.87-1.86,3.87-3.59,5.93-5.25c0.31-0.25,0.57-0.75,0.71-1.12
		c0.05-0.12,0.28-0.66-0.02-0.41c-1.61,1.3-3.18,2.65-4.69,4.07c-1.23,1.15-2.45,2.32-3.34,3.76c-0.79,1.3-1.28,2.63-1.13,4.18
		c0.1,1.03,0.37,2.04,0.53,3.06c0.11,0.72,0.29,1.57,0.33,2.38c-0.64-0.06-1.61-0.42-1.86-0.53c-0.79-0.36-1.49-0.91-2.07-1.56
		c-1.23-1.37-2.02-3.23-2.58-4.96c-0.3-0.93-0.47-1.89-0.25-2.86c0.29-1.28,1.24-2.24,2.13-3.14c1.12-1.13,2.27-2.22,3.18-3.53
		c0.79-1.14,1.46-2.4,1.72-3.77c0.15-0.78,0.09-1.64,0.34-2.4c0.26-0.82,1.01-1.27,1.7-1.75c1.11-0.78,2.24-1.66,2.97-2.78
		c0,0.02-0.54,3.97,0.71,5.38c0.03,0.04-0.3-3.24-0.17-4.68c0.15-1.56,4.3-9.85,4.34-9.91c0.24-0.34,1.25-1.76,1.6-2.05
		c0.54-0.28,1.13-0.43,1.74-0.43c1.36,0,2.7,0.5,3.99,0.96c-0.34,0.38-0.65,0.79-0.92,1.15c-1.68,2.26-2.8,5.02-2.79,7.86
		c0,0.21,0.49-0.45,0.51-0.48c0.19-0.29,0.5-0.72,0.5-1.09c-0.01-1.99,0.49-4.06,1.79-5.61c0.71-0.85,1.58-1.66,2.77-1.52
		c1.26,0.15,2.54,0.59,3.76,0.96c0.34,0.11,1.08-1.64,0.97-1.68c-0.79-0.24-1.59-0.47-2.4-0.67c-0.67-0.17-1.39-0.4-2.09-0.28
		c-0.17,0.03-0.44-0.08-0.47-0.09c-1.65-0.55-5.17-1.96-5.16-2.07c0.02-0.88,0.14-1.88,0.57-2.67c0.41-0.77,1.27-1.37,2.06-1.71
		c1.74-0.74,3.9-0.47,5.24,0.92c1.1,1.31,2.79,1.95,4.23,2.85c1.68,1.05,3.22,2.31,4.58,3.75c1.44,1.52,2.46,3.32,3.8,4.9
		c1.37,1.62,3.09,2.28,5.16,2.49c2.27,0.23,4.57,0.27,6.85,0.44c1.97,0.14,4.05,0.4,5.7,1.6c2.22,1.61,2.97,4.33,2.91,6.99
		C67.03,94.92,66.52,96.14,66.04,97.38z"/>
	<g>
		<path class="st2" d="M98.64,81.31c0,0-21.6-12.34-27.75-0.84c-2.25,4.2-4.73,9.03-7,14.46c-0.99,2.38-5.04,4.48-3.8,7.36
			c1.79,4.19-0.06,5.59-1.03,9.35c-1.17,4.56-0.73-0.71-5.17,16.49c-0.88,3.43-0.93,7.28-1.28,11.37c0,0,7.42,11.72,17.27-12.54
			l6.54-10.43c0,0,6.48,3.63,11.12-12.11c0,0,33.27-1.32,36.14-9.69c0,0,0.29-2.32-1.66-4.89c-1.43-1.88-4.56-1.39-7.01-1.72
			C111.2,87.63,107.61,86.32,98.64,81.31z"/>
		<path class="st2" d="M57.38,142.83c-3.24,0-5.14-2.94-5.22-3.07l-0.08-0.13l0.01-0.15c0.09-1.03,0.16-2.03,0.22-3.03
			c0.2-2.99,0.4-5.81,1.07-8.42c2.94-11.41,3.76-13.01,4.31-14.08c0.27-0.53,0.47-0.92,0.85-2.41c0.27-1.06,0.62-1.95,0.93-2.74
			c0.78-2.01,1.35-3.46,0.13-6.32c-0.91-2.13,0.66-3.85,2.05-5.37c0.74-0.81,1.43-1.57,1.75-2.34c2.33-5.58,4.85-10.46,7.02-14.51
			c1.28-2.4,3.31-3.98,6.02-4.71c8.8-2.37,21.87,5.01,22.47,5.35c9.16,5.11,12.63,6.29,16.16,6.76c0.6,0.08,1.25,0.11,1.93,0.14
			c2.07,0.09,4.22,0.19,5.42,1.78c2.05,2.7,1.77,5.13,1.75,5.23c-2.83,8.28-32.37,9.92-36.25,10.1c-2.07,6.85-4.75,10.93-7.97,12.14
			c-1.49,0.56-2.7,0.33-3.33,0.12l-6.3,10.06c-4.05,9.98-8.27,15.25-12.51,15.59C57.67,142.82,57.52,142.83,57.38,142.83z
			 M53.13,139.39c0.39,0.54,2.1,2.67,4.6,2.46c2.62-0.21,6.76-3,11.66-15.04l6.84-10.92l0.45,0.25c0.05,0.02,1.23,0.65,2.93,0
			c2.03-0.78,4.96-3.46,7.43-11.82l0.1-0.34l0.38-0.02c0.33-0.01,32.94-1.4,35.67-9.35l0,0c-0.01,0,0.18-2.13-1.59-4.47
			c-0.91-1.21-2.72-1.29-4.63-1.37c-0.68-0.03-1.38-0.06-2.03-0.15c-3.67-0.49-7.24-1.69-16.55-6.89l0,0
			c-0.13-0.07-13.27-7.49-21.64-5.24c-2.42,0.65-4.23,2.07-5.38,4.21c-2.15,4.02-4.67,8.88-6.98,14.42
			c-0.38,0.92-1.17,1.79-1.93,2.62c-1.31,1.44-2.55,2.8-1.88,4.39c1.37,3.2,0.71,4.89-0.12,7.02c-0.31,0.8-0.63,1.62-0.89,2.63
			c-0.41,1.6-0.64,2.04-0.93,2.61c-0.53,1.03-1.32,2.58-4.24,13.89c-0.65,2.53-0.84,5.31-1.04,8.25
			C53.28,137.45,53.22,138.41,53.13,139.39z"/>
	</g>
	<path class="st3" d="M82.25,89.61c0,0,4.63,3.22,8,4.79c1.81,0.84,2.83,2.49,2.49,4.21l-1.14,5.79c0,0,17.89-1.42,26.66-5.02
		l4.04-2.52c0,0,1.63-1.35,1.39-2.11c-1.86-6.08-4.73-5.43-4.73-5.43l-0.78-0.05c-3.64-0.23-6.83-1.65-10.15-3.17l-1.67-0.71
		c0,0-2.42-2.27-8.51-5.41C90.12,75.98,83.07,76.5,82.25,89.61z"/>
	<path class="st0" d="M144.93,63.22c0.03-0.08,0.06-0.16,0.07-0.25c0.06-1.26-0.34-2.64-0.51-3.89c-0.02-0.16-0.2-0.38-0.44-0.6
		c0.23-0.89,0.31-1.76,0.08-2.47c-2.53-7.85-6.44-17.99-16.11-21.08c-2.26-0.72-4.63-1.16-6.89-1.88c-2.64-0.84-4.93-2.29-7.54-3.15
		c-2.05-0.68-4.39-0.99-6.75-0.99c-0.02-0.12-0.03-0.25-0.07-0.36c-0.7-2.1-5.99-1.04-7.88-1c-2.78,0.07-6.15,0.61-8.71-0.55
		c0.09-0.68,0.06-1.17-0.23-1.18c-0.82-0.03-1.57,0.08-2.28,0.27c0.03-0.41,0.03-0.68-0.03-0.68c-0.56,0-1.06,0.5-1.52,1.26
		c-0.96,0.46-1.87,1.06-2.78,1.67c-0.07-0.07-0.17-0.08-0.3-0.01c-2.94,1.66-6.51,1.81-9.89,2.27c-2.5,0.34-5,0.68-7.49,1.02
		c-2.13-0.28-4.24-0.49-6.33-0.16c-8.82,1.39-15.68,7.62-21.52,13.03c-0.62,0.57-1.11,1.28-1.51,2.05c-1.5,1.4-2.17,4.02-2.71,5.75
		c-0.05,0.15-0.17,0.74-0.28,1.41c-0.2,0.38-0.4,0.76-0.58,1.13c-0.59,0.3-1.83,1.68-3.07,3.35c-1.24,1.06-2.98,3.94-3.22,4.35
		c-0.73,1.22-1.45,2.47-1.93,3.79c-0.14,0.37-0.7,1.55-0.21,1.84c0.33,0.19,0.65,0.38,0.98,0.58c-0.38,1-0.51,1.8-0.21,2.14
		c3.14,3.61,6.89,6.34,11.38,8.33c2.41,2.25,4.75,4.59,7.31,6.79c3.01,2.58,5.95,3.6,10.05,4.48c2.81,0.61,6.27,0.65,9.04,1.63
		c0.38,0.67,0.99,1.28,1.44,1.86c0.72,0.92,1.33,1.85,1.71,2.92c0.04,0.12,0.1,0.17,0.18,0.18c-0.03,0.41-0.03,0.67,0.03,0.67
		c1.06,0,1.96-1.77,2.62-3.83c0.59-0.76,1.04-1.84,1.38-2.62c0.29-0.68,0.63-1.44,0.92-2.22c0.08-0.08,0.16-0.16,0.25-0.25
		c0.7-0.71,1.36-1.43,1.91-2.24c0.48-0.71,0.89-1.46,1.26-2.22c0.53-0.52,1.02-1.1,1.48-1.68c0.05,0,0.11-0.01,0.18-0.05
		c2.68-1.55,6.2-1.57,9.54-1.43c-0.05,0.64,0.01,1.06,0.24,1.1c4.59,0.92,9.41,2.32,14.13,2.45c0.08,0,0.16-0.01,0.24-0.03
		c0.26,0.14,0.5,0.26,0.67,0.36c0.04,0.02,0.17,0.09,0.35,0.17c0.01,0.04,0.02,0.08,0.04,0.08c0.02,0,0.04-0.01,0.06-0.01
		c0.17,0.18,0.35,0.35,0.52,0.53c0.06,0.06,0.17-0.01,0.3-0.17c0.03,0.01,0.05,0.02,0.07,0.03c0.01,0.03,0.02,0.05,0.03,0.05
		c0.02,0,0.04-0.01,0.05-0.01c1.68,0.76,4.23,1.84,4.25,1.46c0.09-1.49-0.55-2.8-0.8-4.25c-0.28-1.61-0.05-3.19,0.45-4.73
		c0.06-0.08,0.11-0.17,0.17-0.25c0.9-1.33,1.78-2.67,2.54-4.07c0.03-0.06,0.07-0.13,0.1-0.19c0.1-0.09,0.19-0.18,0.27-0.28
		c1.07-0.76,2.11-1.37,3.19-1.83c3.08-0.04,6.16,0.02,9.24,0.21c0.25,0.02,0.5-0.12,0.75-0.36c1.53,0.36,3.01,0.67,4.47,0.76
		c0.03,0.17,0.1,0.27,0.22,0.27c2.38,0,4.75-0.07,6.98-0.9c2.12-0.79,2.99-2.28,4.59-3.56c0.57-0.45,1.01-1.07,1.39-1.75
		c0.51-0.01,0.99-0.43,1.41-1.1c0.24,0.03,0.47,0.02,0.64-0.09c0.41-0.25,1.06-0.53,1.62-0.87c0.61,0.21,1.22,0.34,1.78,0.34
		C146.35,64.57,145.75,63.91,144.93,63.22z"/>
	<g>
		<path class="st1" d="M124.2,55.76C124.2,55.76,124.2,55.76,124.2,55.76C124.22,55.74,124.2,55.76,124.2,55.76z"/>
		<path class="st1" d="M135.97,61.1c-1.85-1.2-1.9-3.72-2.12-5.66c-0.27-2.41-0.45-4.84-1.11-7.18c-0.62-2.22-1.74-4.23-2.95-6.19
			c-1.11-1.8-2.31-3.59-3.8-5.12c-0.34-0.35-0.71-0.68-1.08-0.99c-0.37-0.35-0.73-0.69-1.08-1.03c-0.01-0.01-0.07,0.04-0.15,0.12
			c-1.04-0.69-2.15-1.25-3.38-1.66c-2.24-0.75-4.54-1.22-6.71-2.19c-2.15-0.96-4.21-2.15-6.54-2.67c-0.99-0.22-2.01-0.31-2.98-0.6
			c-1.21-0.36-1.8-1.21-2.83-1.8c-0.99-0.57-2.15-0.42-3.22-0.24c-1.39,0.22-2.75,0.4-4.16,0.35c-2.53-0.09-4.97-0.76-7.2-1.89
			c0.01-0.03,0.03-0.07,0.03-0.1c0.02-0.24,0.08-0.47-0.21-0.12c-0.03,0.03-0.05,0.06-0.08,0.09c-0.08-0.04-0.17-0.08-0.25-0.13
			c-0.17-0.1-0.81,0.91-0.99,1.42c-0.01,0.02-0.02,0.04-0.04,0.05c-6.82,6.22-18.13,3.56-26.58,4.27c-0.54,0.05-0.89,1.7-1.01,1.71
			c0.12-0.01,0.24-0.02,0.36-0.03c-4.01,2.22-7.65,5.03-10.78,8.34c-2.85,3.02-6.47,7.16-6.54,11.54c0,0.03-0.01,0.05-0.03,0.07
			c-0.21,0.26-0.43,0.53-0.64,0.8c-2.34,1.84-4.23,4.13-5.92,6.54c-0.99,1.41-1.92,2.85-2.82,4.31c-0.27,0.44-0.58,0.92-0.59,1.42
			c-0.03,0.05-0.06,0.1-0.09,0.15c-0.06,0.13-0.15,0.29-0.15,0.44c0.01,1.21,0.39,2.39,1.05,3.41c1.14,2.67,4.04,4.93,6.48,6.67
			c1.27,0.9,2.58,1.72,3.92,2.51c1.24,0.73,2.16,1.65,3.18,2.64c2.17,2.1,4.64,3.88,7.31,5.34c0.03,0.02,0.08,0,0.14-0.05
			c0.37,0.15,0.75,0.29,1.14,0.4c2.1,0.57,4.32,0.59,6.49,0.59c2.18,0.01,4.24,0.02,5.5,2.01c1.09,1.71,1.7,3.76,2.07,5.75
			c-0.03,0.24-0.05,0.47-0.08,0.7c-0.42,0.99-0.3,0.84,0,0.65c0.11-0.07,0.21-0.2,0.3-0.35c0.13-0.03,0.46-0.5,0.48-0.53
			c0.09-0.13,0.22-0.34,0.34-0.55c0.02-0.03,0.05-0.07,0.07-0.1c0.22-0.33,0.48-0.71,0.54-1.1c0.07-0.51,0.15-1.01,0.25-1.52
			c0.2-0.64,0.4-1.28,0.6-1.93c0.23-0.5,0.47-1,0.71-1.5c0.37-0.79,0.73-1.58,1.02-2.4c0.04-0.1,0.07-0.2,0.1-0.3
			c0.26-0.5,0.52-1,0.81-1.49c0.22-0.38,0.45-0.75,0.69-1.13c1.2-1.1,2.68-1.87,4.18-2.5c1.37-0.58,2.6-1.14,3.59-2.21
			c0.26,0.01,0.51,0.02,0.77,0.05c1.83,0.24,3.63,0.68,5.43,1.05c2.01,0.41,4.05,0.75,6.02,1.31c3.68,1.04,6.54,3.35,9.37,5.76
			c0.14,0.12,1.14-1.42,1.01-1.71c-1.39-3.33-2.45-7.05-1.51-10.64c0.28-1.06,0.83-1.99,1.55-2.75c0.02-0.02,0.04-0.03,0.06-0.04
			c2.36-0.85,4.85-0.36,7.31-0.42c1.22-0.03,2.4-0.34,3.61-0.37c1.26-0.03,2.48,0.3,3.71,0.54c2.17,0.43,4.02,0.29,5.84-1.04
			c0.46-0.33,0.9-0.7,1.32-1.09c0.11-0.08,0.22-0.14,0.33-0.22c1.41-1.11,2.05-2.68,3.19-4c1.4-1.61,3.64-2.19,5.73-1.79
			C135.25,62.87,136.17,61.23,135.97,61.1z M70.94,81.7c-0.41,0.45-0.78,1.01-1,1.58c-0.23,0.61,0.05,1.1,0.13,1.63
			c-0.21,0.19-0.42,0.38-0.58,0.62c-0.3,0.46-0.59,0.98-0.73,1.51c-0.18,0.63-0.16,1.27-0.13,1.91c0.01,0.32,0.04,0.64,0.04,0.97
			c0,0.23-0.28,1.43,0.03,0.93c-0.13,0.2-0.26,0.49-0.33,0.72c-0.23-0.91-0.5-1.82-0.86-2.7c-0.48-1.18-1.06-2.43-2.1-3.18
			c0.05-0.11,0.08-0.22,0.1-0.33c0.08-0.52,1.21-0.58,1.56-0.58c0.41,0.01,1.02-1.32,1.04-1.66c0.04-0.98-1.95-1.59-1.76-2.3
			c0.1-0.37,1.67-0.58,2-0.67c0.62-0.18,1.11-0.41,1.6-0.81c0.15-0.12,1.1-1.56,0.87-1.64c-2.22-0.71-4.45-1.37-6.69-1.99
			c-0.1-0.03-0.13-0.15-0.06-0.22c2.52-2.3,5.05-4.58,7.67-6.77c-0.28,0.31-0.55,0.64-0.78,0.98c-1.15,1.71-2.27,4.48-0.5,6.2
			c1.3,1.26,2.86,0.9,3.96-0.09c0.08-0.07,0.22-0.03,0.23,0.08c0.2,1.44-0.3,2.66-1.39,3.74C72.52,80.37,71.63,80.94,70.94,81.7z
			 M133.4,61.09c-0.78,0.15-1.53,0.44-2.21,0.88c-0.79,0.5-3.46,2.87-4.83,4.28c-0.62,0.63-1.39,1.1-2.24,1.37
			c-0.89,0.28-1.84,0.55-1.86,0.55c-1.31-0.21-4.73-1.02-5.13-1.21c-0.66-0.32-1.33-0.64-1.99-0.96c-0.5-0.24-1.27-0.17-1.73,0.15
			c-0.61,0.43-1.18,0.92-1.72,1.44c-0.03,0.03-0.08,0.04-0.12,0.03c-2.66-0.7-6.77-0.91-9.59,3.32c-1.87,2.81-2.23,7.47-0.77,11
			c-0.62-0.49-1.48-0.85-2.06-1.18c-1.15-0.66-2.32-1.29-3.54-1.82c-2.68-1.17-5.48-1.55-8.38-1.85c-1.37-0.14-2.74-0.29-4.09-0.57
			c-1.27-0.26-2.69-1.05-3.99-0.98c-0.96,0.05-1.65,0.69-2.25,1.36c-0.63,0.7-1.24,1.42-1.84,2.14l-0.97,0.75
			c-0.23,0.18-0.45,0.36-0.69,0.51c0.25-0.29,0.49-0.59,0.71-0.91c1.11-1.6,1.97-3.5,1.54-5.45c-0.05-0.21-0.65,0.68-0.68,0.72
			c-0.3,0.51-1.78,0.39-2.25,0.27c-1.02-0.27-1.79-1.02-2.02-2.16c-0.27-1.33,0.37-2.67,1.45-3.53c0.59-0.47,1.24-0.88,1.88-1.27
			c1.84-1.13,3.78-2.23,5.95-2.6c2.24-0.38,4.53-0.1,6.75-0.63c0.32-0.08,1.12-1.39,0.96-1.7c-0.96-1.87-3.18-2.58-5.22-2.25
			c-2.4,0.38-4.38,1.98-6.23,3.4c-4.62,3.55-8.9,7.48-13.18,11.41c-0.13,0.12-1.09,1.57-0.87,1.64c1.91,0.52,3.81,1.08,5.7,1.66
			c-0.11,0.04-0.21,0.08-0.32,0.13c-0.77,0.38-1.32,1.07-1.73,1.79c-0.34,0.6-0.73,1.32-0.4,2c0.18,0.38,0.58,0.63,0.94,0.9
			c-0.61,0.43-1.11,1.06-1.44,1.75c-0.15-0.07-0.29-0.14-0.45-0.2c-0.48-0.16-0.98-0.24-1.49-0.28c0.03-0.1,0.05-0.2,0.04-0.29
			c-0.12-1.49-0.92-2.8-1.97-3.85c-0.58-0.58-1.23-1.09-1.89-1.58c-0.6-0.45-1.22-0.96-1.94-1.23c-0.73-0.28-1.36-0.13-1.99,0.3
			c-0.64,0.43-1.32,0.87-1.92,1.35c-0.34,0.27-0.76,0.81-0.97,1.18c-0.17,0.3-0.44,0.73-0.42,1.1c0.04,0.56,0.73,0.82,1.21,0.94
			c0.39,0.1,1.1-1.69,1.01-1.71c-0.23-0.06-0.63-0.19-0.89-0.39c0.21-0.15,0.42-0.3,0.63-0.45c0.47-0.33,0.95-0.74,1.55-0.76
			c1.07-0.02,2.06,0.9,2.86,1.49c1.33,0.99,2.63,2.17,3.28,3.67c0.04,0.09-0.03,0.19-0.13,0.19c-0.69,0.01-1.37,0.04-2.02,0.02
			c-1.69-0.04-3.4-0.16-5.03-0.63c-3.52-1.01-5.24-3.8-7.46-6.39c-1.94-2.27-4.46-3.9-6.92-5.57c-2.04-1.38-5.6-5.61-5.73-5.95
			c0-0.01-0.01-0.02-0.01-0.03c-0.27-2.37,0.22-4.77,1.23-6.95c0.87-1.88,2.11-3.57,3.41-5.2c0.01-0.01,0.01-0.01,0.02-0.02
			c0.32-0.31,0.66-0.6,1.04-0.86c1.48-1.04,3.26-1.56,5.03-1.95c2.01-0.45,4.04-0.84,6.05-1.26c0.3-0.06,0.6-0.76,0.73-0.99
			c0.05-0.09,0.38-0.74,0.17-0.7c-3.42,0.71-7.2,1.1-10.26,2.79c0.01-0.06,0.03-0.12,0.02-0.17c-0.37-2.48,0.64-4.66,2.14-6.62
			c1.35-1.77,2.88-3.42,4.51-4.95c2.77-2.59,5.91-4.78,9.27-6.58c-0.2,0.26-0.39,0.52-0.55,0.79c-0.69,1.13-1.13,2.36-1.23,3.67
			c-0.1,1.3,0.12,2.59,0.46,3.84c0.06,0.22,1.09-1.48,1.06-1.6c-0.26-0.98-0.45-1.98-0.48-3c-0.01-0.5,0.01-1.01,0.1-1.5
			c0.06-0.35,0.15-0.85,0.33-1.14c0.34-0.54,1.08-1.01,1.68-1.27c0.81-0.36,5.46-0.14,5.09,0.5c-0.33,0.56-0.6,1.15-0.75,1.78
			c-0.07,0.11-0.14,0.23-0.2,0.34c-1.37,2.5-2.2,5.23-2.35,8.07c0,0.03-0.02,0.06-0.04,0.09c-0.54,0.52-1.11,1-1.75,1.41
			c-0.33,0.21-0.55,0.66-0.73,0.99c-0.04,0.08-0.31,0.79-0.17,0.7c2.89-1.83,4.43-5.1,7.36-6.86c3.77-2.27,8.38-1.16,12.25,0.24
			c0.33,0.12,1.16-1.66,1.01-1.71c-1.38-0.5-2.86-0.96-4.36-1.25c0-0.08,0.02-0.2,0.04-0.31c0.24-0.2,0.5-0.36,0.79-0.48
			c0.76-0.32,1.6-0.37,2.42-0.33c1.64,0.09,3.24,0.54,4.89,0.24c0.1-0.02,0.28-0.29,0.32-0.34c0.15-0.2,0.29-0.43,0.41-0.65
			c0.05-0.09,0.38-0.74,0.17-0.7c-2.36,0.43-4.72-0.78-7.08,0c-0.65,0.22-1.21,0.64-1.65,1.17c-0.3,0.36-0.6,0.78-0.85,1.23
			c-0.03,0.05-0.08,0.07-0.14,0.07c-2.42-0.37-4.87-0.24-7.07,0.98c-2,1.1-3.36,2.91-4.85,4.56c0.05-0.12,0.08-0.23,0.09-0.34
			c0.08-2.26,0.59-4.53,1.6-6.58c0.47-0.95,1.27-1.7,2.23-2.18c0.95-0.47,1.92-0.91,2.89-1.36c0.01,0,0.02-0.01,0.03-0.01
			c4.87-0.84,13.71-2.5,16.86-5.89c0.04-0.04,0.1-0.05,0.15-0.03c1.93,0.99,4,1.64,6.18,1.85c1.06,0.1,2.13,0.11,3.19,0.02
			c1.18-0.11,2.35-0.45,3.53-0.46c1.26,0,1.9,0.57,2.81,1.31c0.9,0.74,1.99,1,3.12,1.21c2.21,0.41,4.13,1.08,6.14,2.03
			c2.24,1.05,4.55,1.92,6.94,2.59c2.16,0.61,4.2,1.37,5.96,2.74c0,0,0.01,0.01,0.02,0.01c0.62,0.61,1.24,1.22,1.84,1.84
			c0.77,0.79,1.3,1.6,1.42,2.72c0.11,1.07,0.19,2.16,0.25,3.24c0.03,0.56-0.29,1.8-0.39,1.86c-0.14,0.08-0.54,0.08-0.59,0.13
			c-2.99-1.09-4.79-3.77-7.18-5.68c-1.77-1.42-3.92-2.09-6.02-1.89c0.05-0.16,0.07-0.29,0.03-0.35c-0.97-1.55-2.78-2.06-4.48-2.51
			c-2.09-0.55-4.23-0.92-6.39-1.09c-1.94-0.16-4.03-0.01-5.87-0.77c-1.58-0.65-3.19-2.41-2.51-4.19c0.15-0.39,0.01-0.26-0.21-0.12
			c-0.32,0.21-0.59,0.87-0.72,1.21c-0.59,1.52-0.09,3.04,1.18,4.09c1.57,1.3,3.81,1.31,5.76,1.41c2.31,0.12,4.59,0.42,6.83,0.95
			c1.48,0.35,3.17,0.72,4.38,1.65c-1.94,0.7-2.17,1.75-2.33,2.1c-0.03,0.06-0.26,0.69-0.12,0.59c3.17-2.11,6.9-1.51,9.7,0.84
			c2.25,1.89,4.03,4.41,6.89,5.46c0,0.06,0.15,0.06,0.16,0.07c0.26,0.56,0.24,1.17,0.18,1.77c-0.06,0.64-0.14,1.27-0.08,1.91
			c0.04,0.35,0.11,0.7,0.21,1.04c-0.34,0.3-0.64,0.63-0.91,0.99c-0.62,0.83-1.16,1.76-1.44,2.76c-0.02,0.06,2.14-2.62,2.26-2.69
			c0.13-0.08,0.24-0.22,0.33-0.34c0-0.01,0.01-0.01,0.01-0.02c0.25,0.59,0.59,1.14,1.01,1.63c0.1,0.11,1.2-1.51,1.05-1.69
			c-0.85-0.99-1.36-2.22-1.44-3.51c-0.05-0.86,0.19-1.76,0.12-2.61c0-0.03,0.01-0.06,0.03-0.09c0.47-0.49,0.83-1.12,1.11-1.68
			c0.53-1.07,0.56-2.14,0.47-3.27c-0.01-0.14,0.18-0.2,0.25-0.08c1.19,1.83,2.33,3.75,3.06,5.79c0.92,2.59,1.13,5.34,1.42,8.04
			c0.14,1.28,0.21,2.83,0.73,4.11C133.53,61,133.48,61.08,133.4,61.09z M74.81,66.24c1.88-1.48,3.9-3.17,6.32-3.72
			c1.48-0.34,3.11-0.08,4.3,0.78c-1.1,0.08-2.21,0.09-3.32,0.18c-1.59,0.13-3.14,0.58-4.57,1.28C76.63,65.2,75.7,65.68,74.81,66.24z
			"/>
	</g>
	<path class="st0" d="M68.52,95.28c-0.23-0.47-0.88-2.1-1.53-2.1c-0.05,0-0.06,0.08-0.05,0.18c-0.14-0.18-0.34-0.4-0.45-0.32
		c-0.17,0.12-0.34,0.26-0.51,0.38c-0.08-0.1-0.16-0.2-0.24-0.3c-0.09-0.14-0.2-0.21-0.35-0.21c-0.28,0.05-0.56,0.13-0.81,0.26
		c-0.1-0.28-0.18-0.47-0.2-0.51c-0.67-1.54-1.77-4.5-3.36-5.37c-0.71-0.39-1.37-0.5-1.99-0.41c-0.25-0.2-0.5-0.34-0.77-0.37
		c-1.09-0.14-2.15,0.08-3.17,0.52c-0.61-0.87-1.15-1.4-1.46-1.24c-0.48,0.24-0.97,0.44-1.45,0.61c-0.21-0.23-0.45-0.43-0.75-0.47
		c-1.43-0.21-2.83-0.11-4.21,0.24c-0.07-0.02-0.14-0.03-0.2,0c-0.07,0.03-0.14,0.07-0.21,0.1c-0.07,0.02-0.13,0.03-0.2,0.05
		c-0.06,0.02-0.09,0.06-0.12,0.11c-0.47,0.24-0.92,0.5-1.34,0.82c-0.04,0.03-0.06,0.08-0.08,0.14c-0.01,0-0.03-0.01-0.04-0.01
		c0.01,0,0.02,0.03,0.02,0.04c-0.04,0.11-0.04,0.26-0.02,0.42c-0.56,0.31-1.09,0.68-1.59,1.1c-0.15-0.15-0.3-0.29-0.47-0.35
		c-0.82-0.32-1.54-0.25-2.21,0.05c-0.15-0.15-0.32-0.25-0.53-0.25c-0.41,0.33-0.82,0.67-1.23,1c-0.11,0.15-0.14,0.31-0.1,0.49
		c-0.68,0.7-1.33,1.44-1.9,2.24c-0.05,0.07-0.07,0.17-0.09,0.27c-0.2,0.25-0.42,0.5-0.62,0.75c-0.16,0.22-0.14,0.57-0.07,0.91
		c-3.11,1.68-6.64,3.44-7.07,6.66c-0.09-0.02-0.18-0.06-0.27-0.06c0.03,0,0.11,0.23,0.22,0.59c-0.06,0.04-0.12,0.07-0.18,0.11
		c-0.54,0.37,0,2.05,0.87,3.87c-0.11-0.02-0.21-0.02-0.3,0.02c-1.03,0.45-1.31,1.66-1.34,2.95c-0.05-0.01-0.09-0.03-0.14-0.03
		c0.02,0,0.07,0.12,0.13,0.31c0,0.04,0.01,0.09,0.01,0.13c-0.11-0.09-0.23-0.15-0.34-0.15c-0.16,0,0,0.55,0.21,1.13
		c-0.19-0.22-0.38-0.38-0.58-0.38c-0.32,0,0.68,2.33,0.77,2.49c0.06,0.12,0.14,0.31,0.25,0.53c-0.04,0.02-0.08,0.03-0.12,0.05
		c-0.82,0.3,3.05,9.75,4.6,9.18c0.15-0.05,0.29-0.11,0.44-0.16c0.02,2,3.73,9.22,4.76,8.69c1.17-0.6,3.07-1.95,4.93-2.78
		c1.16,2.34,2.68,4.6,3.3,4.35c2.9-1.14,5.79-0.33,8.7-1.14c2.9-0.8,4.45-3.75,5.9-6.22c1.25-2.14,1.61-4.91,2.71-7.38
		c0.98-2.19,1.55-3.77,1.02-6.24c-0.37-1.71-1.11-3.45-2.01-5.01c2.19-1.93,4.1-4.16,5.64-6.66c0.14-0.22,0-0.6-0.07-0.81
		c-0.01-0.02-0.02-0.04-0.02-0.06c0.18-0.14,0.36-0.28,0.55-0.41c0.03-0.02,0.03-0.06,0.04-0.1c0.15,0.15,0.31,0.25,0.47,0.25
		C69.61,97.77,68.6,95.44,68.52,95.28z"/>
	<g>
		<path class="st1" d="M65.95,92.64c-0.76-1.06-2.17-1.87-3.41-1.1c-0.31-1.24-0.8-2.46-1.5-3.52c-0.38-0.57-0.87-1.08-1.47-1.41
			c-0.75-0.42-1.58-0.7-2.37-1.03c-0.8-0.33-1.4-0.62-2.2-0.14c-0.44,0.27-0.84,0.58-1.23,0.91c-0.18-0.56-0.46-1.11-0.86-1.44
			c-0.24-0.2-1.84-0.26-2.35-0.26c-1.51-0.01-6.49,1.05-6.97,2.02c-0.14,0.29-0.25,0.58-0.32,0.88c-0.68-0.06-1.35-0.12-2.03-0.18
			c-0.82-0.07-1.57-0.25-2.17,0.43c-0.61,0.7-1.12,1.52-1.67,2.26c-0.45,0.61-0.9,1.23-1.34,1.84c-0.25,0.35-0.51,0.7-0.76,1.06
			c-1.54-0.23-2.83,1.29-3.77,2.35c-1.27,1.42-2.52,2.94-3.2,4.74c-0.51,1.34-0.53,3.04,0.61,4.05c-0.19,0.26-0.38,0.53-0.55,0.81
			c-1.25,2.06-1.63,4.1-1.05,6.46c0.29,1.18,0.16,5.45,0.12,6.43c-0.08,0.49-0.03,1.01,0.16,1.5c0.21,0.56,0.5,1.11,0.87,1.58
			c0.31,0.52,0.69,1,1.09,1.39c1.27,1.25,2.8,2.19,4.09,3.44c1.22,1.19,2.39,2.44,3.76,3.46c1.41,1.05,2.97,1.71,4.74,1.79
			c1.12,0.05,2.24-0.08,3.37-0.03c1.22,0.05,2.31,0.39,3.42,0.88c1.66,0.73,3.35,1.68,5.23,1.37c1.96-0.32,3.59-1.77,4.96-3.11
			c3.16-3.07,5.22-7.27,3.46-11.61c0.27-0.91,0.29-1.86,0.13-2.79c1.01-1.51,1.44-3.33,1.25-5.14c-0.11-1.06-0.44-2.08-0.9-3.04
			c-0.39-0.81-0.97-2.19-2-2.28c-0.11-0.01,1.66,2.25,1.81,2.83c0.19,0.72,0.25,1.47,0.2,2.21c-0.07,1.19-0.42,2.34-1.03,3.36
			c-0.37-0.8-2.7-1.23-2.72-1.19c-0.15,0.24-0.56,0.77-0.5,1.09c0.38,2,2.09,3.61,1.7,5.75c-0.16,0.9-0.66,1.61-1.36,2.19
			c-0.99,0.8-2.71-1.38-3.13-2.03c-0.57-0.89-2.65,0.79-2.53,0.8c0.92,0.08,2.8,0.59,4.14,2.25c1.07,1.32,1.5,4.88,0.25,6.04
			c-1.25,1.16-2.18,2.13-2.32,2.21c-1.75,1.04-6.93-0.68-9.08-1c-0.83-0.12,0.59-5.9,0.44-6.82c-0.17-1-0.23-2.18,0.07-3.13
			c2.47-7.9,4.22-7.55,4.31-7.76c0.11-0.26,0.26-0.61,0.37-0.89c0.1-0.27,0.12-0.56,0.03-0.83c-0.11-0.33-0.22-0.81-0.13-0.92
			c0.42-0.51,1.04-0.81,1.68-0.91c1.37-0.22,4.06,1.52,4.23,1.63c0.28,0.18-1.63-4.46-2.22-5.4c-0.03-0.08-0.08-0.33-0.08-0.35
			c0.19-1.05,0.69-2.1,1.04-3.11c0.38-1.08,0.27-5.07,0.2-4.88c-0.01,0.03-0.02,0.06-0.03,0.09c-0.1-0.07-0.49,0.44-0.52,0.48
			c-0.15,0.2-0.29,0.41-0.4,0.63c-0.06,0.11-0.19,0.3-0.17,0.42c0.01,0.07,0,0.15,0,0.22c-0.05,0.04-0.1,0.08-0.15,0.12
			c-0.94,0.27-2.8-0.03-2.92-0.08c-0.04-0.04-0.09-0.08-0.13-0.07c-0.01,0-0.47-0.23-0.68-0.38c-0.17-0.12-0.56-0.52-0.61-0.59
			c-0.1-0.21-0.39-0.79-0.56-0.73c-0.15,0.05,0.28,0.91,0.29,0.94c0.2,0.4,0.45,0.77,0.73,1.12c-0.39,0.25-0.71,0.6-0.93,1.02
			c-0.01-0.03-0.02-0.06-0.03-0.09c-0.41-1.1-1.04-2.19-1.94-2.96c-0.1-0.09-0.07,0.14-0.07,0.14c0.03,0.18,0.12,0.39,0.2,0.55
			c0.16,0.35,0.34,0.75,0.64,1.01c0.11,0.1-0.63,4.56-2.04,5.89c-1.03,0.96-2.7,1.62-3.17,3.03c-0.16-0.62-0.34-1.23-0.62-1.81
			c-0.33-0.69-0.74-1.4-1.37-1.86c0.12-1.11-0.04-2.3-0.2-3.35c-0.07-0.42-0.32-0.85-0.55-1.21c-0.06-0.1-0.42-0.59-0.36-0.21
			c0.31,1.97,0.59,4.4-1.16,5.81c-0.16,0.13,0.23,0.81,0.29,0.94c0.04,0.07,0.47,0.88,0.59,0.79c0.78-0.63,1.38-2.2,1.39-2.19
			c0.14,0.31,1.33,2.7,1.44,3.28c0.25,1.32,0.43,2.65,0.54,3.99c0.03,0.39,0.94,1.75,0.93,1.63c-0.06-0.72,0.82-3.12,1.37-3.57
			c0.28-0.22,1.55-1.08,1.91-1.07c0.35,0,0.59,0.34,0.81,0.57c0.13,0.14,0.64,0.94,1.12,1.71c-0.47,0.53-0.92,1.07-1.33,1.65
			c-0.35,0.49-0.65,1.01-0.86,1.58c-0.17,0.45-1.05,3.19-1.24,4.11c-0.2,0.72-0.36,1.44-0.48,2.18c-0.15,0.94-0.24,1.9-0.27,2.85
			c-0.01,0.48-3.61,6.61-3.76,6.81c-3.15-0.21-5.44-2.19-7.29-4.7c-1.1-1.5-1.17-3.52-0.2-5.11c0.53-0.87,1.02-1.65,1.12-1.74
			c2.26-1.94,6.5-7.21,6.65-7.52c0.04-0.07-3.38,3.17-5.13,5.16c-1.78,2.03-6.58,5.43-8.35,2.77c-0.16-0.23,1-4.4,0.77-4.99
			c-0.29-0.76-1.63-4.54-1.68-5.7c-0.06-1.31,0.28-2.57,1.28-3.48c0.01,0,0.01,0,0.02,0c0.64,0.4,1.4,0.58,2.12,0.77
			c0.91,0.24,1.81,0.65,2.76,0.7c0.16,0.01,2.47-0.61,2.54-0.54c0.42,0.43,0.75,0.93,0.98,1.49c0.19,0.48,0.29,0.99,0.31,1.51
			c0,0.12,1.01-1.72,0.99-1.93c-0.1-0.89-0.47-1.74-1.05-2.44c0.27-0.28,0.53-0.56,0.78-0.84c0.29-0.32,0.55-0.77,0.69-1.19
			c0.1-0.3,0.04-0.38-0.2-0.12c-1.2,1.33-2.62,2.67-4.56,2.31c-0.93-0.17-4.97-1.36-5.5-2.05c-1.04-1.37,0.42-3.79,0.98-4.43
			c4.41-4.97,6.36-2.23,6.7-1.93c0.68,0.6,0.95,1.51,0.79,2.4c-0.17,0.98-0.18,1.98-0.01,2.98c0.04,0.22,1.46-5.89,0.43-6.81
			c-0.43-0.38-0.91-0.98-1.5-1.09c-0.18-0.03-0.77-0.1-0.8-0.11c-0.02-0.01,0.57-0.9,0.83-1.26c0.53-0.72,1.05-1.44,1.58-2.16
			c0.3-0.41,0.47-0.7,1.03-0.71c0.42,0,0.84,0.07,1.26,0.1c0.87,0.08,1.74,0.15,2.6,0.23c0,0.48,0.01,0.97,0.02,1.46
			c0.01,0.6-0.06,1.29,0.22,1.84c0.26,0.51,0.8,0.77,1.28,1.02c0.3,0.16,1.06,0.81,1.07,0.8c0.01-0.01,1.06,1.08,1.34,1.82
			c0.08,0.21,0.2-3.14-0.49-3.7c-0.66-0.54-1.77-0.78-2.2-1.56c-0.26-0.48-0.12-2.71-0.13-3.24c-0.01-0.55,4.21-1.3,5.54-1.34
			c0.63-0.02,2.59,0,2.94,0.01c0.14,0.01,0.29,0.01,0.43,0.02c0,0.08-1.62,2.26-1.98,2.98c-0.25,0.48-0.23,1.14-0.15,1.76
			c-0.46,0.09-0.91,0.19-1.37,0.28c-0.07,0.01,2.17,2.97,2.46,3.65c0.07,0.17,0.43,1.02,0.64,1.01c0.21-0.01-0.53-3.6-0.53-3.59
			c-0.06-0.22-0.13-1.58,0.28-1.9c0.54-0.42,2.47-2.8,2.99-3.16c0.64-0.44,1.14-0.72,1.91-0.42c0.67,0.25,4.59,4.12,4.56,4.77
			c-0.05,1.17-0.92,2.12-0.89,3.31c0.01,0.38,0.93,1.78,0.93,1.63c-0.02-0.72,0.28-1.35,0.54-2.01c0.29-0.72,0.26-2.2,0.25-2.23
			c0.24,0.44,1.65,0.39,2.21,0.53c0.24,0.06,0.46,0.15,0.67,0.28c0.12,0.07,0.23,0.14,0.34,0.23c0.03,0.02,0.59,1.77,0.59,2.21
			c0.01,0.59-0.18,1.18-0.52,1.67c-1.15,1.65-5.22,5.25-5.93,5.62c-0.35,0.18,0.78,1.81,0.86,1.74c1.41-1.22,2.78-2.46,4.13-3.74
			c1.2-1.14,2.5-2.19,2.37-3.99C67.37,95.47,66.86,93.92,65.95,92.64z"/>
	</g>
	<path class="st0" d="M157.07,60c0.19-0.92,0.21-1.77,0.01-2.39c0.3-1.44,0.18-2.71-0.58-3.19c0.12-0.89,0.14-1.9-0.3-2.47
		c0.6-2.12,0.46-4.12-1.16-4.12c-0.8,0-1.6,0.65-2.29,1.59c-0.1,0.1-0.2,0.19-0.3,0.3c0.54-1.77,0.78-3.63,0.57-5.45
		c-0.01-0.12-0.04-0.23-0.06-0.34c0.22-0.83,0.38-1.65,0.48-2.48c0.24-0.79,0.47-1.58,0.69-2.38c0.3-1.08,0.75-3.4-0.44-4.04
		c0.01-0.21,0.01-0.42,0.02-0.63c0.03-0.6-0.12-1.05-0.36-1.37c0.03-1.05-0.19-2.19-1.2-2.64c-0.81-0.36-1.68-0.04-2.41,0.43
		c-0.01-0.01-0.03-0.01-0.04-0.02c-0.54-0.33-0.86-0.72-1.19-1.26c-0.76-1.25-1.46-2.3-2.91-2.44c-1.7-2.75-4.54-4.74-7.54-6.3
		c-0.54-0.28-1.15-0.14-1.74,0.27c0.11-0.48,0.17-0.96,0.14-1.44c-0.04-0.59-0.12-1.77-0.86-1.94c-0.22-0.05-0.43-0.11-0.65-0.16
		c-0.09-0.13-0.17-0.27-0.28-0.39c-1.06-1.29-2.61-1.5-4.13-1.91c-0.13-0.03-0.25-0.03-0.38-0.04c-0.16-0.29-0.4-0.5-0.72-0.6
		c-1.4-0.44-2.85-0.88-4.13-1.6c-0.19-0.5-0.41-0.98-0.71-1.43c-0.67-1.01-1.67-1.84-2.71-2.5c-0.43-0.72-0.94-1.39-1.74-1.8
		c-0.35-0.18-1.54-0.28-3.01-0.3c-1.23-0.28-2.47-0.31-3.59,0.1c-1.48,0.1-2.86,0.26-3.69,0.5c-1.55-3.84-7.15-3.12-11.36-2.63
		c-2.61-1.76-5.4-3.17-8.58-3.51c-3.8-0.41-5.91,1.04-7.65,3.31C79.65,5.14,77.97,3.4,75.28,3c-1.84-0.28-3.5,0.38-5.13,1.15
		c-0.95,0.17-1.88,0.43-2.81,0.73c-0.03-0.01-0.06-0.02-0.09-0.02c-0.22-0.18-0.49-0.3-0.86-0.3c-0.22,0-0.43,0.06-0.65,0.15
		c-0.12,0.04-0.24,0.09-0.38,0.15c-2.13,1.06-3.92,0.9-6.2,1.23c-2.06,0.29-4.01,1.28-5.91,2.11c-0.21-0.14-0.46-0.22-0.77-0.22
		c-2.09,0-4.25,4.4-4.2,7.05c-0.24-0.35-0.59-0.57-1.1-0.57c-0.53,0-1.06,0.29-1.56,0.76c-0.19-0.1-0.41-0.17-0.68-0.17
		c-0.48,0-0.97,0.25-1.44,0.65c-0.19-0.11-0.41-0.18-0.69-0.18c-0.8,0-1.61,0.66-2.31,1.61c-0.86,0.41-1.68,1.44-2.3,2.67
		c-0.4,0.4-0.78,0.9-1.11,1.47c-0.59,0.36-1.15,1-1.64,1.78c-0.61,0.21-1.22,0.75-1.75,1.47c-0.44,0.08-0.88,0.34-1.29,0.72
		c-0.43,0.11-0.86,0.39-1.27,0.78c-0.28,0.11-0.56,0.28-0.83,0.51c-0.11-0.02-0.22-0.05-0.34-0.05c-0.56,0-1.13,0.32-1.66,0.84
		c-0.46,0.1-0.89,0.36-1.2,0.68c-0.05,0.05-0.1,0.1-0.15,0.15c-0.21,0.05-0.42,0.12-0.64,0.22c-0.98,0.44-1.81,1.26-2.48,2.08
		c-0.32,0.38-0.6,0.82-0.85,1.28c-2.01,2.7-3.15,5.6-3.48,8.55c-0.48-0.69,0.03-0.54-0.67-1.11c-1.14-0.92-4.08,0.99-4.49,1.59
		c-1.13,1.63-2.24,4.64-1.24,6.61c-0.34,1.63-0.52,3.26-0.64,4.91c-0.42-0.02-0.9,0.19-1.44,0.71c-0.1,0.1-0.21,0.2-0.31,0.3
		c-0.46,0.44-0.96,1.06-1.42,1.78c-1.24,1.71-2.27,3.58-2.67,5.69c-0.45,2.38,0.33,3.79,0.8,6.02c0.31,1.46,0.31,2.97,0.26,4.49
		c-1.51,0.98-2.84,3.77-3.09,5.92c-0.39,0.9-0.74,1.81-1.06,2.75c-0.15,0.45-0.28,1.03-0.33,1.61c-1.14,1.77-1.86,4.28-1.51,5.76
		c-0.03,0.25-0.06,0.5-0.07,0.74c-0.17,3.79,1.42,7.23,1.76,10.96c0.26,2.83,0.24,6.9,3.56,7.37c1.87,0.27,3.65-2.33,4.45-4.79
		c0.75-1.35,1.15-2.97,1.23-4.38c0.07-1.12,0.17-2.24,0.3-3.35c0.92-0.86,1.61-1.95,2.07-3.14c0.27-0.27,0.54-0.55,0.81-0.82
		c0.78-0.79,1.55-1.57,2.33-2.36c0.2-0.2,0.39-0.42,0.58-0.64c1.61-1,3.04-4.1,3.18-6.31c0.58-0.57,1.12-1.37,1.56-2.25
		c1.81-1.03,3.41-4.72,3.26-6.97c0.01-0.05,0.01-0.11,0.02-0.16c0.81-0.51,1.57-1.54,2.15-2.72c0,0,0,0,0.01,0
		c0.37,0,0.74-0.14,1.11-0.38c1.75-0.19,3.51-3.35,3.94-5.87c0.01,0,0.02,0,0.03,0c0.6,0,1.21-0.38,1.77-0.96
		c0.29-0.03,0.59-0.13,0.88-0.31c0.16,0.06,0.33,0.09,0.53,0.09c1.55,0,3.13-2.42,3.83-4.75c0.19-0.24,0.37-0.49,0.54-0.77
		c0.84-0.6,1.61-1.74,2.17-3c0.71-1.07,1.27-2.44,1.52-3.7c0.46-1.13,0.75-2.31,0.74-3.28c0.01-0.02,0.02-0.04,0.02-0.06
		c0.59-0.57,1.13-1.38,1.56-2.27c0.61-0.56,1.17-1.38,1.63-2.3c0.88-0.44,1.71-1.52,2.34-2.79c0.37-0.2,0.73-0.51,1.07-0.9
		c1.29-0.08,2.6-1.79,3.38-3.7c0.81,0.18,1.89-0.79,2.77-2.19c1.01,1.8,2.63,1.56,4.21,0.89c0.19,0.11,0.43,0.14,0.72,0.1
		c1.27-0.2,2.38-0.77,3.46-1.4c3.81-1.22,7.88-1.76,11.78-2.52c0.38-0.07,0.75-0.28,1.11-0.57c0.15-0.03,0.29-0.07,0.44-0.13
		c0.09,0.92,1.92,0.69,2.87,0.46c1.78-0.42,2.09,0.11,3.87-0.31c0.48-0.11,0.92-0.35,1.32-0.66c0.16,0.06,0.33,0.08,0.54,0.08
		c0.24-0.01,0.48-0.02,0.72-0.02c0.1,0.02,0.21,0.03,0.33,0.02c0.24-0.01,0.49-0.03,0.74-0.05c3.09-0.07,6.15,0.03,9.07,1.19
		c2.76,1.09,5.14,2.7,8.1,3.23c0.05,0.01,0.11,0.01,0.16,0.01c0.03,0.55,0.03,1.42,0.47,1.36c5.22-0.64,6.83,2.45,9.75,2.35
		c0.06,0,0.12-0.03,0.18-0.04c1.28,0.58,2.51,0.91,3.8,0.53c0.2,1.18,0.61,2.31,1.29,3.38c0.25,0.38,0.64,0.49,1.04,0.46
		c0.32,0.26,0.77,0.28,1.38-0.12c0.24-0.16,0.47-0.33,0.71-0.5c-0.06,2.24-0.31,5.06,0.71,6.88c0.43,0.77,1.2,1.21,1.69,1.92
		c0.72,1.02,0.89,2.32,1.11,3.52c0.2,1.09,1.16,1.34,2.06,0.92c1.58-0.76,2.26-0.39,3.11,0.16c-2.72,0.05-5.99,7.74-3.33,8.98
		c0.14,0.07,0.29,0.12,0.43,0.19c-1.38,0.24-2.64,0.99-3.86,2.37c-2.98,3.37-5.62,6.6-10.45,7.23c-2.36,0.31-4.68-0.3-7.01-0.58
		c-2.02-0.25-4.15-0.02-5.91-1.13c-0.36-0.22-0.76-0.22-1.17-0.06c-0.01,0-0.02-0.01-0.04-0.01c-2.99,0-6.15,9.02-2.72,9.02
		c0.04,0,0.08-0.02,0.12-0.02c0.2,0.12,0.43,0.21,0.65,0.31c-0.05,0.68,0.04,1.28,0.32,1.73c3.77,6.14,10.27,8.81,17.13,9.98
		c1.16,0.2,2.41,0.45,3.68,0.69c0.04,0.05,0.08,0.11,0.13,0.16c0,0-0.01-0.01-0.01-0.01c0.48,0.42,0.87,0.89,1.16,1.46
		c0.05,0.15,0.1,0.3,0.13,0.46c0,0.03,0.01,0.04,0.01,0.06c0,0.07,0.01,0.1,0.01,0.08c-0.05,0.7-0.06,1.51,0.36,2.05
		c0.3,0.39,0.73,0.5,1.16,0.44c0.71,0.34,1.58,0.14,2.32-0.25c1.95-1.04,3.77-2.55,5.6-3.79c0.33-0.22,0.63-0.48,0.92-0.76
		c0.72-0.3,1.4-0.69,2.04-1.19c0.58-0.05,1.17-0.44,1.71-1.02c1.58-1.39,2.85-4.6,2.7-6.61c0.28-0.25,0.56-0.53,0.81-0.88
		c1.77,0.42,3.95,0.92,5.66,0.08c1.98-0.97,2.44-3.48,3.82-4.98c0.7-0.76,1.62-2.4,1.99-3.99c2.09-1.02,3.96-5.71,3.26-7.8
		C157.82,62.8,158,60.72,157.07,60z"/>
	<path class="st1" d="M158.23,60.54c0.02-3.5,0.19-7.19-0.99-10.54c-0.31-0.87-1.1-3.4-2.28-3.1c-0.58,0.15-1.17,0.77-1.63,1.12
		c-0.19,0.14-0.38,0.29-0.56,0.43c0.23-0.3,0.45-0.6,0.63-0.93c0.69-1.26,0.82-2.74,1.01-4.14c0.22-1.66,0.41-3.32,0.55-4.99
		c0.21-2.45,0.74-5.65-0.88-7.77c-0.28-0.37-0.65-0.74-1.1-0.88c-0.27-0.09-0.47-0.07-0.74-0.04c-0.73,0.08-0.74,0.18-1.29-0.25
		c-1.35-1.06-2.54-2.46-3.78-3.65c-0.11-0.1-0.44,0.09-0.77,0.35c-0.04-0.23-0.11-0.45-0.22-0.64c-0.22-0.36-0.62-0.56-0.94-0.81
		c-0.39-0.31-0.71-0.67-1.03-1.04c-1.08-1.29-2.29-2.99-4.16-2.77c0,0,0,0,0-0.01c-0.08-0.16-0.48-0.46-0.51-0.47
		c-0.79-0.19-1.58-0.33-2.35-0.19c0.08-0.09,0.15-0.19,0.19-0.29c0.22-0.64,0.44-1.33,0.33-2.02c-0.12-0.81-0.78-1.18-1.43-1.57
		c-1.34-0.81-2.79-1.96-4.39-2.15c-0.64-0.08-1.23-0.4-1.24-0.4c-0.95-0.48-1.98-0.33-2.97-0.63c-0.92-0.28-1.5-0.98-1.98-1.78
		c-0.96-1.6-1.67-3.1-3.24-4.21c-1.43-1-3.17-1.58-4.92-1.6c-2.12-0.03-3.9,1.05-5.9,1.55c-0.01,0-0.03,0.01-0.04,0.02
		c-0.12-0.3-0.28-0.59-0.45-0.83c-1.07-1.55-2.97-2.14-4.77-2.26c-2.21-0.15-6.51,0.05-6.53,0.04C96.21,1.9,92.21-0.3,87.84,0.79
		c-1.73,0.43-3.3,1.32-4.68,2.44c-0.29,0.23-0.64,0.71-0.97,0.87c-0.64,0.32-0.96-0.19-1.41-0.59c-0.65-0.58-1.43-0.95-2.28-1.15
		c-1.9-0.43-3.88-0.06-5.75,0.32c-2.48,0.5-4.95,1.04-7.41,1.62c-2.34,0.55-4.68,1.14-7,1.77c-2.16,0.58-4.53,1.02-6.54,2.01
		c-1.53,0.75-2.96,1.96-3.39,3.66c-0.19,0.76-0.27,1.56-0.29,2.37c-0.06-0.01-0.12-0.01-0.19-0.02c-2.52-0.84-5.43,0.65-7.39,2.31
		c-1.4,1.19-2.51,2.67-3.6,4.14c-0.69,0.93-1.38,1.86-2.2,2.68c-0.93,0.93-2.08,1.54-3.25,2.1c-3.41,1.64-6.76,3.06-9.14,6.14
		c-1.4,1.81-2.77,4.2-3.31,6.64c-1.32-0.03-2.55,0.61-3.59,1.42c-1.34,1.04-2.3,2.34-2.84,3.95c-0.57,1.73-0.72,3.6-0.92,5.41
		c-0.1,0.92-0.29,1.9-0.23,2.82c0.01,0.22,0.06,0.43,0.13,0.62C5.1,56.7,6.23,63.39,6.23,63.47c0.27,6.39-3.25,14.68-4.51,19.04
		c-1.28,4.4-1.53,9.02-0.84,13.55c0.02,0.16,1.25,2.92,1.47,4.9c0.21,1.97,0.86,4.03,2.55,5.22c0.7,0.49,1.64,0.87,2.51,0.73
		c0.9-0.14,1.75-0.83,2.34-1.5c0.6-0.67,0.94-1.51,1.28-2.33c0.44-1.08,2.7-6.74,2.68-7.02c-0.19-1.98,5.21-8.57,5.71-8.43
		c0.02,0.94,0.17,1.87,0.51,2.79c0.03,0.08,1.68-0.79,1.53-1.19c-0.32-0.86-0.26-5.56,0.25-6.88c0.43-1.11,4.91-5.5,4.94-5.57
		c1.01-2.17,0.15-3.58,0.69-5.15c0.39-1.14,1.04-2.32,2-3.09c0.77-0.37,1.55-0.73,2.33-1.06c0.15-0.06,3.17-2.44,2.43-3.95
		c0.52-0.47,1.77-0.63,2.55-0.86c4.71-1.38,5.62-7.02,7.48-10.06c0.23-0.37,2.2-1.51,2.25-2.02c0,0,1.96-8.06,4.4-10.83
		c1.3-1.48,2.72-2.87,4.11-4.28c0.71-0.72,1.39-1.49,2.13-2.17c0.54-0.48,1.1-0.63,1.67-0.61c0.52,0.19,1.87,0.5,2,0.55
		c0.12,0.05,2.38-0.21,3.35-0.5c1.88-0.55,3.67-1.39,5.53-1.99c1.93-0.62,3.91-1.09,5.91-1.42c3.93-0.65,7.93-0.72,11.89-0.26
		c0.31,0.04,0.81-0.44,1.02-0.63c0.01-0.01,0.06-0.05,0.11-0.1c0.56,0.1,1.14,0.12,1.66,0.15c3.7,0.19,7.7-0.86,11.24,0.65
		c1.39,0.6,2.57,1.57,3.89,2.3c0.15,0.38,0.36,0.74,0.67,1.05c0.84,0.83,2.07,1.11,3.2,1.31c1.57,0.27,3.12,0.5,4.64,1
		c1.57,0.52,3,1.38,4.57,1.9c1.43,0.47,2.75,0.24,3.94-0.37c-0.03,0.06-0.08,0.11-0.09,0.17c-0.46,1.52,0.24,3.18,1.73,3.67
		c0.93,0.3,2.33-0.12,2.35,0.02c0.24,1.7-0.21,3.4,0.01,5.09c0.23,1.83,1.63,2.64,2.55,4.09c0.48,0.75,0.8,1.61,0.92,2.49
		c0.08,0.56-0.12,1.55,0.71,1.48c0.65-0.05,1.15-0.73,1.8-0.85c0.61-0.11,1.2,0.1,1.68,0.46c-1.19,0.79-2.23,1.85-2.87,3.1
		c-0.98,1.94-0.78,4.18,0.33,5.97c-2.49,1.1-4.02,3.74-6.07,5.44c-1.29,1.07-2.7,2-4.09,2.92c-1.16,0.77-4.49,0.15-4.71-0.16
		c-0.34-0.48-0.79-0.6-1.37-0.63c-1.47-0.07-2.95,0.02-4.4,0.26c-0.37,0.06-0.74,0.39-1.02,0.63c-0.06,0.05-0.13,0.11-0.2,0.17
		c-1.06-1.36-2.84-2.14-4.56-1.81c-0.57,0.11-1.58,0.41-1.96,0.65c-1.38,0.86-2.53,2-3.06,3.54c0,0.01-0.01,0.02-0.02,0.03
		c0,0.01,0,0.01,0,0.01c-0.05,0.14-0.1,0.27-0.13,0.42c-0.47,1.85-0.17,3.87,0.52,5.62c1.63,4.13,5.02,7.25,8.88,9.3
		c1.91,1.02,3.95,1.78,6.05,2.34c1.06,0.29,2.14,0.52,3.22,0.69c1.17,0.19,2.54,0.18,3.55,0.86c0.99,0.66,0.93,1.73,1.22,2.75
		c0.33,1.13,1.23,1.75,2.39,1.84c2.34,0.17,4.64-1.95,6.44-3.15c2.63-1.76,5.52-3.38,7.91-5.47c1.63-1.42,3.17-3.73,1.83-5.81
		l1-0.54c0.09,0,0.17,0.01,0.26,0c0.02,0,0.04-0.01,0.06-0.02c0.81,0.67,1.97,0.81,3,0.54c1.6-0.42,3.02-1.7,4.05-2.94
		c2.24-2.7,4-5.91,5.45-9.1c0.14-0.09,0.27-0.17,0.41-0.27c1.27-0.94,1.98-2.05,2.12-3.65C158.33,64.54,158.22,62.51,158.23,60.54z
		 M26.52,69.47c-1.18,0.69-2.36,1.71-3.67,2.1c-1.32,0.4-2.72-0.03-3.93-0.6c-1.84-0.86-3.6-2.25-5.73-2.24
		c-1.66,0.01-3.2,1.87-2.99,1.6c0.45-0.56,1.87-0.4,2.49-0.29c1.08,0.19,2.06,0.73,3.01,1.24c1.54,0.83,3.21,1.82,5.03,1.66
		c1.75-0.15,3.23-1.43,4.68-2.3c0.86-0.52-0.32,2.98-0.02,5.63c-0.75,0.39-1.44,1.08-1.91,1.62c-0.99,1.13-1.82,2.46-2.53,3.78
		c-0.79,1.49-1.35,3.12-1.51,4.78c-0.71,0.19-1.38,0.61-1.97,1.07c-1.06,0.83-5.1,4.78-5.17,4.83c-0.18,0.13-0.87,0.56-0.86,0.84
		c0.08,2.5-0.18,4.99-0.8,7.42c-0.31,1.21-0.7,2.4-1.17,3.55c-0.21,0.5-5.07-1.33-5.46-3.32c-0.49-2.53,0-10.18,1.34-9.84
		c0.43,0.11,1.52-1.2,1.41-1.23c-1.35-0.34-2.67,0.68-3.56,1.61c-0.47,0.49-0.78,1.05-1.04,1.64c-0.38-4.03,0.01-8.11,1.2-11.99
		c0.79-2.59,1.97-5.05,2.89-7.6l0.87-1.13c0.47-0.61,0.68-1.35,0.71-2.12c0.05-1.3,0.47-2.63,0.5-3.92
		c0.04-1.48,0.23-2.06,0.27-3.54c1.82-1.02,2.9-1.13,4.75,0.34c1.71,1.37,3,3.44,4.14,5.28c0.11,0.18,1.7-0.91,1.53-1.19
		c-0.74-1.2-1.54-2.35-2.42-3.45c-0.73-0.91-5.21-5.32-6.27-5.86c-2.08-1.06,6.27-6.48,7.15-6.17c1.15,0.4,2.24,1.03,3.27,1.68
		c1.94,1.22,3.72,2.68,5.3,4.33c1.96,2.05,5.56,8.43,5.82,9.07C31.53,66.89,27.58,68.85,26.52,69.47z M156.49,68.52
		c-0.82,3.45-3.07-5.83-1.08-8.1c0.27-0.31,0.09-0.25-0.16-0.21c-0.36,0.07-0.85,0.58-1.08,0.84c-1.61,1.84-3.23,3.69-4.84,5.53
		c-0.67,0.77-1.32,1.6-2.08,2.28c-1.15,1.04-2.54,1.35-4.04,1.5c-1.85,0.19-3.75,0.12-5.51,0.79c-1.18,0.45-5.43,2.74-4.04,2.41
		c1.25-0.3,2.28-1.11,3.52-1.45c2.41-0.66,5.01-0.21,7.37-1.11c2.51-0.96,4.41-3.21,6.05-5.07c0.36-0.41,1.06-0.55,1.51-0.25
		c2.1,1.44-0.08,5.99,2.22,5.33c-1.26,2.82-2.78,5.51-4.56,8.04c-0.71,1.01-1.39,2.09-2.71,2.28c-1.1,0.16-2.53-1.54-3.65-0.8
		c-0.28-0.13-6.65,4.1-9.28,5.51c-0.39,0.21-0.79,0.5-1.08,0.84c-0.2,0.24-0.17,0.38,0.16,0.21c0,0,6.93-3.64,6.96-3.6
		c0.6,0.82,0.68,0.73,0.42,1.72c-0.39,1.47-1.87,2.97-3.06,3.77c-2.07,1.4-4.29,2.77-6.37,4.16c-1.64,1.1-4.17,3.9-5.95,1.65
		c-0.57-0.72-0.49-1.67-0.78-2.5c-0.3-0.87-0.99-1.34-1.84-1.6c-1.69-0.52-3.54-0.56-5.26-0.98c-1.84-0.45-3.65-1.07-5.37-1.87
		c-3.21-1.49-6.19-3.64-8.27-6.54c-1.11-1.54-2.02-3.32-2.4-5.2c-0.19-0.93,6.39-4.98,7.13-3.59c-0.27,0.37-0.51,0.75-0.67,1.16
		c-0.79,1.98-0.05,4.06,1.12,5.72c1.41,2,3.29,3.72,5.17,5.27c1.67,1.37,3.7,2.91,5.92,1.88c0.38-0.18,0.83-0.5,1.08-0.84
		c0.19-0.25,0.18-0.36-0.16-0.21c-1.69,0.78-3.59-0.63-4.89-1.68c-1.41-1.13-2.75-2.36-3.99-3.68c-1.26-1.34-2.51-2.88-2.93-4.72
		c-0.16-0.68,0.48-2.98,0.51-3.11c0.01-0.05,1.29-0.6,1.74-0.55c1.48,0.17,6.57,0.96,7.59,0.49c1.56-0.72,3.01-1.82,4.41-2.82
		c1.41-0.99,2.78-2.06,4.01-3.26c1.08-1.06,2.03-2.8,3.54-3.24c0.28-0.08,1.03-0.15,1.17,0.01c0.2,0.23,1.69-1.02,1.53-1.19
		c-2.02-2.26-2.55-7.11,0.83-8.52c0.17-0.07,1.58-0.97,1.37-1.19c-0.87-0.87-2.1-0.99-3.18-0.42c-0.31,0.16-0.74,0.62-1.14,0.41
		c-0.25-0.13-0.15-0.84-0.16-0.98c-0.09-0.96-0.36-1.87-0.86-2.7c-0.88-1.47-2.34-2.28-2.62-4.08c-0.28-1.74,0.02-5.45,0.3-5.69
		c3-2.6,9.06-8.86,8.69-8.87c-0.35,0-0.97,0.65-1.19,0.88c-2.26,2.35-4.57,4.64-6.93,6.87c-0.45,0.42-0.9,0.99-1.46,1.25
		c-0.62,0.29-1.37,0.25-1.99-0.05c-1.24-0.6-1.78-2.05-1.37-3.39c0.43-0.35,0.84-0.74,1.23-1.14c2.1-2.17,3.23-5.05,3.02-8.08
		c0.01,0.09-1.56,0.66-1.53,1.19c0.11,1.58-0.15,3.14-0.77,4.6c-0.74,1.74-2.15,3.86-4.24,3.95c-1.73,0.07-3.31-1.01-4.84-1.64
		c-1.5-0.62-8.43-3.01-9.9-3.84c0-0.01-0.01-0.01-0.01-0.02c-0.27-0.68-0.35-1.46-0.34-2.27c0.03-3.54,0.81-7.07,2.09-10.36
		c0.09-0.22-3.47,7.49-3.6,10.85c-0.01,0.21-0.01,0.42-0.02,0.63c-0.77-0.51-1.55-1.01-2.43-1.33c-3.24-1.21-6.78-0.48-10.14-0.51
		c-1.43-0.01-3.77,0.11-4.46-1.44c-0.71-1.58-0.26-3.97,0.06-5.6c0.71-3.62-0.97-2.27-1.61,1.52c-0.26,1.53-0.55,3.44-0.08,4.97
		c0.12,0.41,0.34,0.72,0.61,0.96c-3.2-0.23-6.41-0.14-9.59,0.35c-3.79,0.58-7.27,1.83-10.85,3.13c-1.58,0.57-3.25,0.86-4.8,0.67
		c-0.52-0.2-1.05-0.35-1.58-0.38c-1.13-0.43-2.15-1.21-2.94-2.42c-0.96-1.46-1.01-3.23-1.68-4.81c-0.64-1.52-4.69-2.52-4.62-2.47
		c1.41,0.94,2.53,2.24,3.16,3.83c0.63,1.59,0.7,3.34,1.7,4.79c0.57,0.82,1.26,1.42,2.02,1.86c-0.45,0.31-4.99,4.75-6.8,6.64
		c-0.48,0.5-2.38,2.07-2.46,2.14c-0.67,0.59-1.92,0.62-2.75,0.53c-0.9-0.1-1.75-0.44-2.49-0.97c-0.71-0.51-1.31-1.18-1.78-1.92
		c-0.43-0.69-0.58-1.56-1.04-2.21c-0.9-1.29-3.59-0.31-4.71,0.17c-1.71,0.73-3.24,1.82-4.73,2.91c-0.13,0.1-0.94,0.64-0.86,0.84
		c0.09,0.21,0.56-0.15,0.67-0.24c1.73-1.27,3.55-2.6,5.72-2.94c0.95-0.15,2.1-0.25,2.56,0.77c0.39,0.85,0.66,1.67,1.24,2.43
		c0.75,0.99,0.29,3.83-0.31,3.92c-1.26,0.18-2.42,0.71-3.48,1.41c-2.01,1.32-1.93,6.19,0.69,4.7c0.38-0.22,0.82-0.49,1.08-0.84
		c0.17-0.23,0.18-0.4-0.16-0.21c-1.43,0.81-2.97-2.75-0.74-3.54c1.15-0.41,2.36-0.35,3.55-0.51c0.68-0.09,1.29-0.29,1.86-0.58
		c0,0,0.01,0,0.01,0c1.66,0.1,1.37,6.47,1.08,6.86c-1.21,1.63-2.17,3.49-3.23,5.22c-0.23,0.37-0.46,0.75-0.69,1.12
		c-0.78,1.27-1.95,2.25-3.34,2.77c-1.54,0.58-2.97,1.43-4.24,2.48c-1.63-3.2-3.85-6.1-6.57-8.47c-2.04-1.78-4.49-3.59-7.11-4.4
		c-1.7-0.52-4.61,0.41-4.92,0.57c-0.21,0.11-0.42,0.23-0.62,0.35c-0.41-0.74-0.06-2.24,0-2.82c0.14-1.43,0.28-2.88,0.54-4.29
		c0.24-1.28,0.6-2.61,1.36-3.69c0.75-1.06,2.05-1.34,3.28-1.07c0.14,0.03,0.33-0.07,0.52-0.21c-0.13,1.16-0.04,2.33,0.35,3.42
		c1.45,4.02,6.29,4.83,9.99,5.28c0.31,0.04,0.81-0.44,1.02-0.63c0.07-0.06,0.61-0.57,0.39-0.6c-2.94-0.35-6.34-0.83-8.51-3.06
		c-2.71-2.78-1.78-6.92-0.21-10.03c0.98-1.94,2.23-3.85,4.12-4.99c1.5-0.91,3.15-1.53,4.72-2.3c2.81-1.37,7.28-4.86,7.51-2.68
		c0.14,1.27,4.38,5.53,5.35,5.41c1.29-0.16-3.54-5.17-3.76-6.16c-0.22-1-0.07-2.08,0.25-3.04c0.6-1.78,2.3-3.72,4.25-3.98
		c4.07-0.53,4.03,3.1,3.93,3.57c-0.05,0.24,1.95-1.39,1.91-1.56c-0.07-0.34-0.05-2.9-0.36-3.26c-0.03-0.03-0.08-0.05-0.11-0.07
		c-0.06-0.99-0.06-1.98,0.06-2.95c0.11-0.93,0.32-1.98,1.18-2.47c0.81-0.46,1.85-0.64,2.74-0.89c4.38-1.26,8.79-2.38,13.23-3.36
		c0,0,0,0,0,0c-2.98,1.58-5.5,3.68-6.16,7.17c-0.35,1.84-0.15,3.76,0.25,5.57c0.34,1.51,1.04,3.75,3.03,3.38
		c0.38-0.07,0.74-0.39,1.02-0.63c0.06-0.05,0.58-0.63,0.39-0.6c-1.53,0.28-2.34-1.18-2.69-2.43c-0.43-1.54-0.7-3.17-0.64-4.77
		c0.03-1.02,0.48-1.99,1.15-2.76c7.05-8.04,12.34-5.92,12.69-5.82c1.04,0.33,2.33,5.38,2.23,6.56c-0.09,1.1-0.54,2.02-1.11,2.95
		c-1.27,2.03-2.57,4.05-3.85,6.08c-0.22,0.34,4.21-5.15,5.51-7.33c0.43-0.72,1.5-3.24,1.28-4.33c0.01-0.02-0.58-2.63-0.63-2.91
		c0.54,0.41,1.46,2.07,2.16,1.74c0.53-0.26,1.26-1.92,1.69-2.32c0.94-0.88,1.23-1.7,2.46-2.13c4.49-1.58,12.44,3.44,12.56,3.42
		c2.19-0.31,4.47-0.55,6.68-0.4c0.52,0.04,1.06,0.12,1.58,0.25c-2.99,1.51-5.66,3.9-7.31,6.81c-0.47,0.84-0.85,1.75-1.45,2.51
		c-0.47,0.6-1.36,0.83-2.04,1.11c-1.54,0.62-2.99,1.41-4.1,2.68c-0.24,0.27,2.42-1.33,2.99-1.54c3.73-1.36,4.67-0.19,5.77-0.15
		c0.12,0,1.53-1.22,1.41-1.23c-0.45-0.02-1.72-0.09-2.16-0.21c-0.58-0.18-0.26-1.73,0.11-2.36c0.83-1.43,1.52-2.85,2.63-4.1
		c1.08-1.21,4.44-3.11,4.69-3.36c1.11,0.38,2.11,1.04,2.72,2.11c0.24,0.43,0.2,1.39,0.11,1.44c-0.83,0.46-1.61,1.07-2.24,1.78
		c-1.09,1.23-1.66,2.81-1.38,4.45c0.02,0.14,0.4-3.19,1.82-3.87c0.78-0.37,2.8-1.54,3.26-2.29c0.1-0.16,0.5-0.88,0.51-1.06
		c2.39-0.83,3.3-1.38,8.03-0.18c0.61,0.15,1.2,0.42,1.67,0.83c1.25,1.11,1.83,2.52,2.72,3.91c0.46,0.72,1.04,1.32,1.87,1.58
		c0.98,0.31,2.01,0.13,2.95,0.61c0.02,0.01-4.2-0.49-0.98,9.71c0.09,0.28,0.43,0.2-0.08-4.32c-0.19-1.72,0.58-2.63,0.85-3.35
		c0.6-1.6,3.84-0.69,5.21,0.14c0.67,0.4,1.64,0.79,1.96,1.56c0.26,0.63,0.08,1.36-0.14,2c-0.55,0.34-1.07,0.79-1.44,1.3
		c-0.23,0.32-0.39,0.7-0.41,1.1c-0.02,0.42,0.11,0.81,0.45,1.07c0.07,0.06,0.25-0.05,0.3-0.07c0.2-0.1,0.4-0.24,0.57-0.38
		c0.06-0.05,0.78-0.64,0.65-0.74c-0.31-0.24-0.47-0.61-0.44-0.99c0.01-0.19,0.56-0.61,0.77-0.62c3.49-0.14,5.22,2.26,6.37,3.59
		c0.29,0.34,0.59,0.65,0.94,0.93c0.32,0.25,0.72,0.46,0.94,0.81c0.51,0.82,0.18,2.3,0.16,3.22c-0.06,2.02,0.17,4.31-0.5,6.25
		c-0.59,1.71-2.02,2.96-2.6,4.68c-0.07,0.23,3.63-4.13,4.18-5.91c0.66-2.11,0.4-4.63,0.46-6.82c0-0.13,0.01-0.27,0.02-0.41
		l2.35,2.27c0.33,0.31,0.71,0.85,1.14,1.02c0.39,0.16,0.69-0.03,1.09-0.05c2.59-0.13,2.74,4.22,2.66,5.93
		c-0.13,2.61-0.42,5.22-0.77,7.81c-0.16,1.14-0.27,2.34-0.73,3.41c-0.67,1.54-4.48,4.72-5.87,4.52c-2.16-0.3-3.24-2.72-3.47-4.64
		c-0.02-0.13-0.82,0.41-0.88,0.45c-0.18,0.14-0.68,0.47-0.65,0.74c0.32,2.56,2.1,5.3,5.03,4.57c1.14-0.29,2.19-0.9,3.19-1.55
		c-1.8,2.34-2.79,5.23-2.42,8.31c0.02,0.13,0.82-0.41,0.88-0.45c0.18-0.14,0.68-0.47,0.65-0.74c-0.32-2.69,6.97-8.64,7.26-7.75
		c1,3.1,0.88,6.45,0.88,9.63c0,1.1-0.02,2.19-0.02,3.29C156.69,65.79,156.79,67.22,156.49,68.52z"/>
	<path class="st2" d="M69.43,51.02c0,0,20.6-3.92,27.75,11.5c1.8,3.89,0.36,4.75-2.3,1.95c-1.67-1.75-10.12-9.44-17.14-8.78
		c0,0-7.83-2.55-13.25,13.24c0,0-4.95,11.79-14.38,3.06c0,0-6.84-14.62,13.91-25.7s48.13-4.81,52.34,5.19
		c1.89,4.48,1.89,8.65-8.25,13.4l-5.89,1.92c0,0,14.94-13.99-5.19-19.57C97.01,47.24,81.69,43.94,69.43,51.02z"/>
	<path class="st4" d="M146.87,57.24c-2.31-0.57-4.53-0.15-6.54,0.86c0.35-0.5,0.98-1.31,1.64-2.66c0.22-0.45,2.25-8.05,2.21-8.31
		c-0.02-0.14-2.67,1.3-2.7,1.61c-0.47,4.1-1.95,7.69-4.06,10.89c-0.43,0.66-0.96,1.24-1.52,1.79c-0.9,0.87-2.21,2.19-2.93,2.94
		c-0.42,0.43-0.85,0.84-1.32,1.22c-2.06,1.72-7.44,6.19-7.96,6.52c-3.29,2.12-6.55,4.28-9.75,6.54c-0.39,0.14-0.79,0.27-1.2,0.38
		c-0.63,0.16-1.26,0.27-1.89,0.32c-1.47,0.03-2.96-0.09-4.41-0.26c-0.58-0.11-1.15-0.23-1.72-0.37c-0.96-0.24-1.91-0.5-2.86-0.76
		c-0.5-0.24-0.98-0.52-1.43-0.86c8.03-2.24,6.88-13,2.65-18.21c-1.55-1.91-3.56-3.34-5.79-4.26c0.08-0.08,0.28-0.24,0.28-0.36v-5.03
		c0-0.24-0.61,0.19-0.67,0.24c-0.2,0.14-0.4,0.3-0.58,0.47c-0.08,0.08-0.28,0.24-0.28,0.36v3.84c-1.63-0.51-3.35-0.76-5.07-0.72
		c-0.35,0.01-0.78,0.41-1.02,0.63c-0.06,0.05-0.6,0.6-0.39,0.6c8.22-0.21,15.21,6.36,15.34,14.63c0.03,1.84-0.27,4.05-1.45,5.54
		c-1.34,1.7-4.21,1.47-6.15,1.39c-1.9-0.08-3.78-0.2-5.67,0.1c-1.88,0.31-3.7,0.92-5.44,1.7c-4.01,1.81-7.55,4.52-11.01,7.21
		c-0.1,0.07-0.77,0.58-0.65,0.74c0.12,0.15,0.82-0.41,0.88-0.45c0.4-0.31,0.81-0.63,1.22-0.94c-0.58,0.49-1.15,0.99-1.72,1.48
		c-1.02,0.88,0.11,0.41,0.62-0.04c4.41-3.82,9.3-7.92,15.36-8.43c3.27-0.27,6.35,0.66,9.44,1.56c1.76,0.86,3.83,1.24,5.87,1.37
		c0.41,0.05,0.82,0.09,1.23,0.11c0.57,0.03,1.13,0.01,1.68-0.04c0.17,0,0.35,0,0.52,0c0.8-0.01,1.58-0.12,2.33-0.29
		c0.02,0.01,0.06,0.01,0.13-0.01c5.48-1.67,11.37,1.08,13.73,6.27c0.05,0.12,1.69-0.83,1.53-1.19c-0.9-1.99-2.31-3.59-4-4.74
		c0.2-0.13,0.43-0.27,0.62-0.37c0.37-0.21,0.75-0.4,1.13-0.58c0.68-0.31,1.39-0.57,2.1-0.79c0.24-0.07,0.61-0.25,0.81-0.39
		c0.19-0.13,0.38-0.28,0.54-0.45c0.09-0.09,0.49-0.52,0.12-0.41c-1.94,0.55-3.76,1.45-5.42,2.59c-0.08,0.06-0.15,0.13-0.23,0.19
		c-2.04-1.29-4.47-1.92-6.94-1.78c1.5-0.84,2.93-1.85,4.35-2.83c3.15-2.18,6.21-4.53,9.13-7.05c0.21-0.17,7.32-6.48,7.85-6.98
		c0.27-0.26,2.04-2.38,2.27-2.77c1.78-0.84,3.88-0.97,5.78-0.5c0.28,0.07,0.83-0.47,1.02-0.63
		C146.56,57.77,147.09,57.29,146.87,57.24z"/>
</g>
</svg>
